<svg id="Layer_1" data-name="Layer 1" xmlns="http://www.w3.org/2000/svg" viewBox="0 0 373.79 59.94"><defs><style>.cls-1{fill:#031e30;}</style></defs><path class="cls-1" d="M217.05,24.61h-6.17c-4.56,0-7.47-1.53-7.47-6.24V14.81c0-3.61,1.67-5.86,7.49-5.86h19.58V.46h-19.6c-10.62,0-16.3,4.36-16.3,14.22v3.81c0,10.65,5.54,14.73,16,14.73h5.93c4.54,0,7.65,1.93,7.65,6.71,0,1.09,0,2.58,0,3.57,0,5-1.66,7.39-7.42,7.39H195.88l0,8.5H216.8c11.26,0,16.35-3.46,16.35-15.77V39.81C233.15,29.8,228.35,24.61,217.05,24.61Z"/><polygon class="cls-1" points="239.06 8.89 252.69 8.89 252.69 59.39 261.57 59.39 261.57 8.89 275.2 8.89 275.2 0.42 239.06 0.42 239.06 8.89"/><path class="cls-1" d="M373.79,14.81c0-10.13-6.34-14.39-15.23-14.39H336.19v59h9V33.85h13.37c8.89.07,15.23-4.41,15.23-15.15Zm-8.38,3.56c0,4.86-2.22,6.8-6.85,6.8H345.19V9h13.37c3.67,0,6.85,1.76,6.85,5.86Z"/><path class="cls-1" d="M178.43,27.36c1.24-.58,3.93-2.41,3.93-8.87V14.68C182.36,5.21,177,.35,166.52.42H144.63v59h24.31c10.73,0,15.91-4.88,15.91-15.5V39.81C184.85,29.9,179.81,27.72,178.43,27.36Zm-4.67-12.68v3.81c0,4.93-2.21,6-7,6H153.63V9h13.14C170.51,9,173.76,10.52,173.76,14.68Zm2.56,28.94c0,4.93-1.93,7.28-6.71,7.28h-16V33h16.19c3.74,0,6.5,2.63,6.5,6.79Z"/><path class="cls-1" d="M96.93.42A4.56,4.56,0,0,0,92.36,5V54.81a4.56,4.56,0,0,0,4.57,4.58h35.44V50.9h-31V33H124V24.49H101.36V9h31V.42H96.93Z"/><path class="cls-1" d="M289.72.42A4.53,4.53,0,0,0,285.15,5V54.81a4.57,4.57,0,0,0,4.57,4.58h35.45V50.9h-31V33h22.64V24.49H294.14V9h31V.42Z"/><path class="cls-1" d="M63.76,45.75l-.41,4.68-.42-4.82L54.69,6.45C53.93,2.71,51.93,0,47.77,0s-6.23,2.71-6.92,6.45L32.54,45.68l-.42,4.75-.41-4.75L24,11.38C22.5,4,17.45.42,9.83.42H0V8.88H9.62a6.2,6.2,0,0,1,3.81,1.32,5.62,5.62,0,0,1,2.15,3.33l9.21,40.1c.83,3.4,3.25,6.31,7,6.31a7.35,7.35,0,0,0,7.41-5.83L47.36,15l.34-3.71L48,15l8.24,39.08a7.21,7.21,0,0,0,7.34,5.83c3.74,0,6.23-3,7-6.31L82.77.42H73.91Z"/></svg>