<svg width="100" height="100" viewBox="0 0 100 100" fill="none" xmlns="http://www.w3.org/2000/svg">
<rect width="100" height="100" fill="#6B8A80"/>
<path d="M54.9433 31.265V78.5903H41.2391V39.1688L54.9433 31.265ZM23.6196 78.5903H37.3237V41.4131L23.6196 49.317V78.5903ZM6 78.5903H19.7041V51.5612L6 59.4651V78.5903Z" fill="#FEFCF6"/>
<path d="M58.9566 28.9231V78.3952H72.5629V75.1751C74.4227 77.6146 77.0656 79.371 81.3727 79.371C90.1824 79.371 94 72.2478 94 60.8311C94 49.5121 90.2803 42.2913 81.3727 42.2913C77.3593 42.2913 74.9121 43.8526 73.1502 45.9993V20.629L58.9566 28.9231ZM75.3037 51.3661C77.8487 51.3661 78.7297 52.4394 78.7297 60.8311C78.7297 69.2228 77.7509 70.2962 75.3037 70.2962C74.6185 70.2962 73.9333 70.1011 73.2481 69.6132V52.0491C73.9333 51.5612 74.6185 51.3661 75.3037 51.3661Z" fill="#FEFCF6"/>
</svg>
