<svg xmlns="http://www.w3.org/2000/svg" viewBox="0 0 138.64 42.16"><defs><style>.cls-1{fill:#1a1818;}.cls-2{fill:#e52b1d;}</style></defs><g id="Layer_2" data-name="Layer 2"><g id="Layer_1-2" data-name="Layer 1"><g id="Group_1" data-name="Group 1"><g id="Group_8" data-name="Group 8"><g id="Group_6" data-name="Group 6"><path id="Path_18" data-name="Path 18" class="cls-1" d="M54,4H65.63a.25.25,0,0,1,.24.25V6.52a.24.24,0,0,1-.24.24H57.11a.24.24,0,0,0-.24.24v3.8a.25.25,0,0,0,.24.25h7.42a.24.24,0,0,1,.24.24v2.33a.24.24,0,0,1-.24.24H57.11a.24.24,0,0,0-.24.24V18a.24.24,0,0,0,.24.24h8.5a.24.24,0,0,1,.24.24v2.4a.24.24,0,0,1-.24.24H54a.24.24,0,0,1-.24-.24V4.26A.24.24,0,0,1,54,4Z"></path><path id="Path_19" data-name="Path 19" class="cls-1" d="M69.07,4h2.65a.24.24,0,0,1,.24.24h0V18.09a.24.24,0,0,0,.24.24h8.23a.24.24,0,0,1,.24.24V20.9a.24.24,0,0,1-.24.24H69.07a.24.24,0,0,1-.24-.24V4.26A.24.24,0,0,1,69.07,4Z"></path><path id="Path_20" data-name="Path 20" class="cls-1" d="M97,11.7v4.9c0,3.37-1.54,4.67-4.62,4.67H89c-3.06,0-4.6-1.3-4.6-4.67V11.7C84.41,8.33,86,7,89,7h3.32C95.42,7,97,8.33,97,11.7Zm-3,4.92V11.56c0-1.49-.59-2-2.06-2h-2.4c-1.44,0-2,.49-2,2v5.06c0,1.52.59,2,2,2h2.4c1.47,0,2.06-.49,2.06-2Z"></path><path id="Path_21" data-name="Path 21" class="cls-1" d="M111.61,20.78c0,3.4-1.54,4.2-4.6,4.18a52.7,52.7,0,0,1-6.15-.34.24.24,0,0,1-.21-.24l0-1.73a.23.23,0,0,1,.24-.23h5.63c1.45,0,2-.49,2-2V19.24a9.11,9.11,0,0,1-3.76,1.22h-.93c-3,0-4.5-.71-4.5-4.06V11.14c0-3.35,1.52-4,4.5-4.06h.81a9.85,9.85,0,0,1,3.88,1.22V7.45a.25.25,0,0,1,.25-.25h2.55a.25.25,0,0,1,.24.25ZM102.41,16c0,1.52.59,1.89,2,1.89h.73a13.69,13.69,0,0,0,3.4-.86V10.6a13.25,13.25,0,0,0-3.4-.85h-.73c-1.44,0-2,.36-2,1.88Z"></path><path id="Path_22" data-name="Path 22" class="cls-1" d="M121.81,21.14h-2.65a.23.23,0,0,1-.24-.24h0V4.26a.24.24,0,0,1,.24-.24h2.65a.24.24,0,0,1,.24.24h0V20.9a.23.23,0,0,1-.24.24Z"></path><path id="Path_23" data-name="Path 23" class="cls-1" d="M138.4,6.71h-5a.25.25,0,0,0-.25.25h0V20.9a.23.23,0,0,1-.24.24h-2.65a.23.23,0,0,1-.24-.24h0V7a.25.25,0,0,0-.24-.25h-5a.23.23,0,0,1-.24-.24h0V4.26a.24.24,0,0,1,.24-.24H138.4a.24.24,0,0,1,.24.24h0V6.47a.24.24,0,0,1-.24.24Z"></path></g><g id="Group_7" data-name="Group 7"><path id="Path_24" data-name="Path 24" class="cls-1" d="M53.74,26.49h8V28H55.45v3.67H61v1.52H55.45v5H53.74Z"></path><path id="Path_25" data-name="Path 25" class="cls-1" d="M71.13,31.69v3.57c0,2.26-1,3.05-3.06,3.05H65.94c-2,0-3-.79-3-3.05V31.69c0-2.25,1-3,3-3h2.13C70.11,28.65,71.13,29.44,71.13,31.69Zm-1.65,3.55v-3.6c0-1.22-.46-1.59-1.65-1.59H66.17c-1.17,0-1.62.37-1.62,1.59v3.6c0,1.24.45,1.62,1.62,1.62h1.66C69,36.87,69.48,36.48,69.48,35.24Z"></path><path id="Path_26" data-name="Path 26" class="cls-1" d="M73.23,28.76h1.65v1a6.29,6.29,0,0,1,2.79-1.08h1.14v1.49H77.4a6.42,6.42,0,0,0-2.53.77v7.29H73.23Z"></path><path id="Path_27" data-name="Path 27" class="cls-1" d="M80.17,25.92h1.64v3.64a7,7,0,0,1,2.8-.89h.62c2,0,3,.45,3,2.7v4.24c0,2.23-1,2.68-3,2.7h-.62a7.09,7.09,0,0,1-2.8-.9v.82H80.17Zm1.64,10.23a9.31,9.31,0,0,0,2.53.69h.59c1.19,0,1.66-.27,1.66-1.5v-3.7c0-1.24-.47-1.51-1.66-1.51h-.59a9.31,9.31,0,0,0-2.53.69Z"></path><path id="Path_28" data-name="Path 28" class="cls-1" d="M98.32,38.22H96.67v-.78a7.7,7.7,0,0,1-2.9.88h-.55c-2,0-3-.43-3-2.68V28.75h1.66v6.6c0,1.24.45,1.51,1.64,1.51h.54a10.5,10.5,0,0,0,2.63-.68V28.75h1.64Z"></path><path id="Path_29" data-name="Path 29" class="cls-1" d="M100.61,28.75h1.65v.78a7.23,7.23,0,0,1,2.8-.88h.57c2,0,3,.44,3,2.67v6.9H107V31.6c0-1.22-.46-1.5-1.63-1.5h-.55a8.9,8.9,0,0,0-2.53.7v7.42h-1.64Z"></path><path id="Path_30" data-name="Path 30" class="cls-1" d="M117,25.92h1.66v12.3H117V37.4a6.86,6.86,0,0,1-2.78.91h-.62c-2,0-3-.47-3-2.7V31.37c0-2.25,1-2.69,3-2.7h.62a6.82,6.82,0,0,1,2.78.88Zm0,10.22V30.81a8.73,8.73,0,0,0-2.51-.68h-.6c-1.17,0-1.63.27-1.63,1.51v3.7c0,1.22.46,1.49,1.63,1.49h.6a8.73,8.73,0,0,0,2.51-.68Z"></path><path id="Path_31" data-name="Path 31" class="cls-1" d="M128.28,38.12s-1.94.17-4.45.17c-2,0-3-.54-3-2.8V31.72c0-1.93,1.23-3,3.25-3H126A2.7,2.7,0,0,1,129,31a3.08,3.08,0,0,1,0,.68v2.53c0,.13,0,.18-.17.18h-6.43v.86c0,1.47.3,1.62,1.62,1.62h4.26ZM127.4,32c0-1.68-.5-2-1.75-2h-1.27c-1.26,0-1.94.27-1.94,2v1.07l5,0Z"></path><path id="Path_32" data-name="Path 32" class="cls-1" d="M130.14,28.74h1.38V26.49h1.64v2.26h2.68v1.43h-2.68v5.5c0,.86.25,1.18,1,1.18l1.76,0V38a18.56,18.56,0,0,1-2.35.26c-1.69,0-2.1-1-2.1-2.37V30.18h-1.37Z"></path></g></g><path id="Path_33" data-name="Path 33" class="cls-2" d="M42.68,21.13c0-2.34-1-4.32-2.61-5a45.51,45.51,0,0,0-1.18-6.84c1.4,0,1.74-1.1,1.09-2.63a8.81,8.81,0,0,0-4.3-4.13c-1.59-.63-2.76-.25-2.62,1.2a49.58,49.58,0,0,0-6.62-1.06C25.79,1,23.78,0,21.4,0s-4.39,1-5,2.63a50.13,50.13,0,0,0-6.68,1C9.83,2.2,8.65,1.81,7,2.43A8.78,8.78,0,0,0,2.69,6.57C2,8.16,2.45,9.32,4,9.21A47.52,47.52,0,0,0,2.84,15.8C1.13,16.45,0,18.49,0,20.92S1.08,25.38,2.79,26A47.38,47.38,0,0,0,4,33.11C2.45,33,2,34.18,2.7,35.75A8.68,8.68,0,0,0,7,39.88c1.65.64,2.84.21,2.65-1.33a50.68,50.68,0,0,0,6.7,1c.68,1.58,2.67,2.57,5,2.58s4.35-1,5-2.61a50,50,0,0,0,6.67-1.06c-.08,1.42,1.07,1.79,2.65,1.18a8.7,8.7,0,0,0,4.3-4.18c.65-1.54.27-2.71-1.11-2.69a46.77,46.77,0,0,0,1.12-6.66C41.66,25.45,42.65,23.46,42.68,21.13Zm-5,12a8.94,8.94,0,0,0-4.25,4.16,56.1,56.1,0,0,1-6.82,1c-.15-1.56-1.72-2.92-4-3.29.06-2.29.11-4.91.15-7.84a6.31,6.31,0,0,0,4.93-4.95c2.87,0,5.46-.06,7.72-.1.33,2.46,1.74,4.13,3.39,4.26A48,48,0,0,1,37.7,33.1Zm-32.44.36a51.47,51.47,0,0,1-1.15-7.31c1.56-.22,2.87-1.78,3.27-4,2.3,0,4.91.08,7.83.1a6.32,6.32,0,0,0,5.23,5c0,2.91,0,5.51.09,7.78-2.47.31-4.17,1.7-4.33,3.33a55.14,55.14,0,0,1-6.9-1,9.14,9.14,0,0,0-4-3.84ZM9.35,4.89a57,57,0,0,1,6.88-1c.22,1.55,1.9,2.88,4.3,3.19,0,2.21-.07,4.76-.09,7.61a6.3,6.3,0,0,0-5.26,5.23c-2.88,0-5.47.07-7.75.11-.29-2.45-1.64-4.16-3.26-4.38A52.16,52.16,0,0,1,5.26,8.86a8.89,8.89,0,0,0,4.09-4ZM37.65,9a48.77,48.77,0,0,1,1.12,6.91c-1.62.13-3,1.74-3.38,4.15-2.26-.05-4.84-.09-7.7-.12a6.31,6.31,0,0,0-5-5.2c0-2.86-.08-5.43-.14-7.66,2.27-.35,3.81-1.64,4-3.14a54.23,54.23,0,0,1,6.82,1,9.13,9.13,0,0,0,4.23,4ZM17.44,20.92a4,4,0,1,1,4,4,4,4,0,0,1-4-4Zm.74-17.79c.11-1.23,1.51-2.06,3.22-2.08s3.1.88,3.24,2.1-1.3,2.27-3.22,2.31-3.32-1.1-3.24-2.33Zm0,35.85c-.07-1.27,1.33-2.33,3.26-2.36S24.74,37.7,24.66,39s-1.53,2.11-3.26,2.13-3.11-.87-3.24-2.11ZM34.8,37.42a5.32,5.32,0,0,1,3-2.94C39,34.14,39.46,34.86,39,36a5.27,5.27,0,0,1-2.74,2.66c-1.15.43-1.85,0-1.48-1.23ZM37,21.12c0-1.94,1.1-3.34,2.37-3.26s2.14,1.53,2.17,3.27-.88,3.14-2.17,3.26S37.07,23.05,37,21.12ZM34.74,4.7c-.36-1.19.33-1.62,1.46-1.2a5.36,5.36,0,0,1,2.74,2.65c.46,1.11,0,1.81-1.2,1.47a5.47,5.47,0,0,1-3-2.92Zm-31,1.37A5.44,5.44,0,0,1,6.52,3.43C7.68,3,8.38,3.46,8,4.64A5.28,5.28,0,0,1,5,7.56C3.76,7.9,3.3,7.19,3.75,6.07ZM1.12,20.91c0-1.75.93-3.16,2.22-3.29s2.38,1.31,2.4,3.26-1.14,3.37-2.43,3.3-2.18-1.53-2.19-3.27ZM3.76,36.25c-.45-1.13,0-1.82,1.24-1.48a5.24,5.24,0,0,1,3,2.91c.36,1.18-.35,1.62-1.5,1.21a5.52,5.52,0,0,1-2.77-2.64Z"></path></g></g></g></svg>