 <svg xml:space="preserve" viewBox="0 0 286 286" height="286" width="286" y="0px" x="0px" xmlns:xlink="http://www.w3.org/1999/xlink" xmlns="http://www.w3.org/2000/svg" id="logo-highcharts" version="1.1" aria-hidden="true">   <g transform="translate(36.27183278401693,0) scale(3)" id="symbol-logolab"> <polygon stroke-linejoin="round" fill-opacity="1" stroke="#383836" stroke-width="0" id="svg_2" points="41.53900146484375,0 30.315000534057617,26.209999084472656 15.566999435424805,60.650997161865234 49.85900115966797,46.16499710083008 68.02299499511719,38.49300003051758" fill="#8087E8"></polygon> <polygon stroke-linejoin="round" fill-opacity="1" stroke="#383836" stroke-width="0" id="svg_3" points="47.25799560546875,31.729999542236328 49.86000061035156,46.16499710083008 68.02400207519531,38.49300003051758" fill="#30426B"></polygon> <polygon stroke-linejoin="round" fill-opacity="1" stroke="#383836" stroke-width="0" id="svg_4" points="41.53900146484375,0 47.25799560546875,31.730998992919922 68.02299499511719,38.49300003051758" fill="#6699A1"></polygon> <polygon stroke-linejoin="round" fill-opacity="1" stroke="#383836" stroke-width="0" id="svg_5" points="47.25799560546875,31.729999542236328 68.02400207519531,38.49300003051758 30.31599998474121,26.208999633789062 15.566999435424805,60.650997161865234 49.86000061035156,46.16499710083008" fill="#78758C"></polygon> <polygon stroke-linejoin="round" fill-opacity="1" stroke="#383836" stroke-width="0" id="svg_6" points="15.566999435424805,60.650997161865234 30.315000534057617,26.209999084472656 0,16.334999084472656" fill="#A3EDBA"></polygon> <polygon stroke-linejoin="round" fill-opacity="1" stroke="#383836" stroke-width="0" id="svg_7" points="49.86000061035156,46.16499710083008 53.185997009277344,64.6099967956543 68.02400207519531,38.49300003051758" fill="#6699A1"></polygon> <polygon stroke-linejoin="round" fill-opacity="1" stroke="#383836" stroke-width="0" id="svg_8" points="41.53900146484375,0 30.315000534057617,26.209999084472656 47.25799560546875,31.730998992919922" fill="#8087E8"></polygon> </g> <g transform="translate(0,252.1867488656506) scale(1.2917615269276177)" id="text-highsoft-logolab"> <path stroke="#383836" stroke-width="0px" id="svg_2" d="M20.726992187500002,14.062999435424807 H3.7029921875000014 v9.771 c0,1.036 -0.8130000000000002,1.852 -1.852,1.852 c-1.036,0 -1.851,-0.8130000000000002 -1.851,-1.852 V2.072999435424805 c0,-1.036 0.8130000000000002,-1.852 1.851,-1.852 s1.852,0.8130000000000002 1.852,1.852 v8.438 h17.023 v-8.438 c0,-1.036 0.8130000000000002,-1.852 1.851,-1.852 s1.852,0.8130000000000002 1.852,1.852 v21.762 c0,1.036 -0.8130000000000002,1.852 -1.852,1.852 c-1.035,0 -1.851,-0.8130000000000002 -1.851,-1.852 V14.062999435424807 z" fill="#383836"></path> <path stroke="#383836" stroke-width="0px" id="svg_3" d="M39.22799218750001,23.832999435424803 c0,1.036 -0.8130000000000002,1.852 -1.8530000000000002,1.852 c-1.033,0 -1.8490000000000002,-0.8130000000000002 -1.8490000000000002,-1.852 v-21.76 c0,-1.036 0.8130000000000002,-1.852 1.8490000000000002,-1.852 c1.037,0 1.8530000000000002,0.8130000000000002 1.8530000000000002,1.852 V23.832999435424803 z" fill="#383836"></path> <path stroke="#383836" stroke-width="0px" id="svg_4" d="M66.38899218750001,14.729999435424801 c0,-1.037 0.8130000000000002,-1.776 1.8530000000000002,-1.776 c1.033,0 1.8530000000000002,0.8130000000000002 1.8530000000000002,1.852 v5.849 c0,0.4430000000000001 -0.22400000000000006,1.109 -0.5960000000000002,1.479 c-2.367,2.369 -5.549,3.773 -9.179,3.773 c-7.179,0 -12.952,-5.771 -12.952,-12.952 s5.773,-12.952 12.952,-12.952 c3.63,0 6.813,1.404 9.179,3.773 c0.7410000000000002,0.7390000000000002 0.7410000000000002,1.852 0,2.591 c-0.7370000000000002,0.7400000000000002 -1.9220000000000002,0.8130000000000002 -2.6630000000000003,0.07400000000000002 c-1.701,-1.702 -3.923,-2.739 -6.516,-2.739 c-5.106,0 -9.249,4.146 -9.249,9.253 s4.143,9.253 9.249,9.253 c2.369,0 4.44,-0.8130000000000002 6.069,-2.223 V14.729999435424801 z" fill="#383836"></path> <path stroke="#383836" stroke-width="0px" id="svg_5" d="M100.4349921875,14.062999435424807 h-17.023 v9.771 c0,1.036 -0.8130000000000002,1.852 -1.8530000000000002,1.852 c-1.034,0 -1.8530000000000002,-0.8130000000000002 -1.8530000000000002,-1.852 V2.072999435424805 c0,-1.036 0.8150000000000002,-1.852 1.8530000000000002,-1.852 s1.8530000000000002,0.8130000000000002 1.8530000000000002,1.852 v8.438 h17.023 v-8.438 c0,-1.036 0.8130000000000002,-1.852 1.85,-1.852 s1.854,0.8130000000000002 1.854,1.852 v21.762 c0,1.036 -0.8130000000000002,1.852 -1.854,1.852 c-1.033,0 -1.85,-0.8130000000000002 -1.85,-1.852 V14.062999435424807 z" fill="#383836"></path> <path stroke="#383836" stroke-width="0px" id="svg_6" d="M118.9359921875,10.361999435424806 c0,-9.252 5.698,-10.36 9.99,-10.36 c1.036,0 1.8530000000000002,0.8130000000000002 1.8530000000000002,1.851 c0,1.036 -0.8140000000000002,1.852 -1.8530000000000002,1.852 c-3.479,0 -6.29,0.7390000000000002 -6.29,6.6610000000000005 v5.183 c0,9.252 -5.698,10.36 -9.993,10.36 c-1.037,0 -1.851,-0.8130000000000002 -1.851,-1.851 c0,-1.035 0.8130000000000002,-1.851 1.851,-1.851 c3.479,0 6.293,-0.7390000000000002 6.293,-6.6610000000000005 V10.361999435424806 z" fill="#383836"></path> <path stroke="#383836" stroke-width="0px" id="svg_7" d="M147.4239921875,-5.645751954830303e-7 c7.176,0 12.948,5.771 12.948,12.952 s-5.771,12.952 -12.948,12.952 s-12.95,-5.771 -12.95,-12.952 C134.4749921875,5.772999435424804 140.2469921875,-5.645751954830303e-7 147.4239921875,-5.645751954830303e-7 zM147.4239921875,22.204999435424803 c5.106,0 9.25,-4.146 9.25,-9.253 s-4.144,-9.253 -9.25,-9.253 c-5.104,0 -9.247,4.146 -9.247,9.253 C138.1779921875,18.059999435424807 142.3189921875,22.204999435424803 147.4239921875,22.204999435424803 z" fill="#383836"></path> <path stroke="#383836" stroke-width="0px" id="svg_8" d="M172.2099921875,23.907999435424806 c0,1.036 -0.8130000000000002,1.776 -1.854,1.776 c-1.031,0 -1.8530000000000002,-0.8130000000000002 -1.8530000000000002,-1.852 V2.2199994354248034 c0,-1.035 0.8170000000000002,-1.8530000000000002 1.8530000000000002,-1.8530000000000002 h17.768 c1.035,0 1.85,0.7410000000000002 1.85,1.7770000000000001 c0,1.034 -0.8130000000000002,1.775 -1.85,1.775 h-15.914 v6.958 h12.215 c1.033,0 1.8490000000000002,0.7380000000000002 1.8490000000000002,1.7730000000000001 c0,1.037 -0.8130000000000002,1.776 -1.8490000000000002,1.776 h-12.215 V23.907999435424806 z" fill="#383836"></path> <path stroke="#383836" stroke-width="0px" id="svg_9" d="M206.3329921875,3.9229994354248063 h-9.252 c-1.037,0 -1.854,-0.7410000000000002 -1.854,-1.775 c0,-1.037 0.8130000000000002,-1.776 1.854,-1.776 h22.203 c1.036,0 1.852,0.7400000000000002 1.852,1.776 c0,1.034 -0.8130000000000002,1.775 -1.852,1.775 h-9.248 v19.91 c0,1.036 -0.8180000000000002,1.852 -1.854,1.852 s-1.8530000000000002,-0.8130000000000002 -1.8530000000000002,-1.852 v-19.91 H206.3329921875 z" fill="#383836"></path> </g></svg>