<svg xmlns="http://www.w3.org/2000/svg" viewBox="0 0 775.56 119.06"><path fill="#802933" d="M248.05 1.21h-30.73c-58 0-66.66 40.53-66.66 58.92s8.62 58.93 66.66 58.93h30.73c58 0 66.66-40.53 66.66-58.93s-8.63-58.92-66.66-58.92zm15.73 90c-12.09 12.09-30 13.83-44.83-1l-16.32-16.32c-14.87-14.87-13.13-32.74-1-44.83 12.09-12.09 30-13.83 44.83 1l16.32 16.32c14.83 14.89 13.09 32.76 1 44.85zM93.22 118.55H13.85c-8.51 0-12.92-4.67-12.92-11.42s4.41-11.42 12.92-11.42h78.17c8.94-.23 13-5.43 13-12.47s-4.09-11.33-13.19-11.57h-54c-18.17 0-37.84-8.72-37.84-34.63S20.44 1.72 36.81 1.72h71.88c8.51 0 12.92 4.62 12.92 11.37s-4.41 11.2-12.92 11.2H37.33c-7.57.2-12 5.22-12 12.23S29.76 48.4 37.49 48.6h55.73c19 0 37.49 8.72 37.49 34.64s-17.88 35.31-37.49 35.31m435.02-51.11V56.36c.07-5.74 2.16-34.57 36.32-34.57h7.62c34.13 0 36.22 28.84 36.3 34.58v11.08zM572.15 0h-7.59c-49.37 0-62.41 34.51-62.41 59.05v47.47c0 8.19 5.85 12 13.06 12s13.06-4.47 13.06-12.68V88.79h80.21v17.11c0 8.21 5.84 12.68 13.05 12.68s13.06-3.84 13.06-12V59.05c0-24.54-13-59-62.41-59M405.73 0c-54.24.48-65.88 38.27-65.88 59.52v47c0 8.17 5.82 12 13 12s13-4.45 13-12.63V61.64c.17-13.5 4.82-38.78 38.93-38.78h1.87c34.11 0 38.76 25.28 38.92 38.78v44.28c0 8.18 5.83 12.63 13 12.63s13-3.82 13-12v-47C471.62 38.27 459.98.48 405.73 0zm356.92 1.72H655.32c-8.51 0-12.92 4.62-12.92 11.37s4.41 11.2 12.92 11.2h40.74v82c0 8.12 5.78 12.22 12.91 12.22s12.92-4.1 12.92-12.22v-82h40.76c8.51 0 12.92-4.45 12.92-11.2s-4.41-11.37-12.92-11.37z"></path></svg>