<?xml version="1.0" encoding="UTF-8" standalone="no"?>
<svg
   id="Logo"
   viewBox="0 0 93.390003 19.530002"
   version="1.1"
   width="93.389999"
   height="19.530001"
   xmlns="http://www.w3.org/2000/svg"
   xmlns:svg="http://www.w3.org/2000/svg">
  <defs
     id="defs1">
    <style
       id="style1">.cls-1{fill:#ff4238;}
    </style>
  </defs>
  <path
     class="cls-1"
     d="m 34.95,5.7 c 0,1.37 -1.19,2.36 -3.06,2.36 -2.07,0 -3.31,-0.89 -3.54,-2.54 l 1.53,-0.29 c 0.14,0.86 0.75,1.53 1.95,1.53 0.82,0 1.48,-0.28 1.48,-0.89 0,-0.54 -0.41,-0.76 -1.15,-1 L 30.36,4.31 C 29.31,3.97 28.56,3.37 28.56,2.23 28.56,0.75 29.96,0 31.43,0 33.3,0 34.45,0.96 34.75,2.41 L 33.22,2.7 c -0.13,-1 -0.89,-1.4 -1.72,-1.4 -0.71,0 -1.36,0.2 -1.36,0.76 0,0.56 0.48,0.73 1.28,0.98 l 1.48,0.44 c 1.14,0.36 2.03,1.01 2.03,2.23 z"
     id="path1" />
  <path
     class="cls-1"
     d="m 35.86,1.95 h 1.46 v 1.16 h 0.15 c 0.23,-0.75 0.82,-1.28 1.81,-1.28 1.19,0 2.41,0.94 2.41,3.11 0,2.17 -1.15,3.12 -2.45,3.12 -0.92,0 -1.55,-0.44 -1.78,-1.18 H 37.31 V 9.73 H 35.85 V 1.95 Z m 4.25,3.04 c 0,-1.25 -0.5,-1.94 -1.41,-1.94 -0.91,0 -1.39,0.69 -1.39,1.94 0,1.25 0.49,1.87 1.39,1.87 0.9,0 1.41,-0.67 1.41,-1.87 z"
     id="path2" />
  <path
     class="cls-1"
     d="m 42.19,6.36 c 0,-1.02 0.59,-1.71 1.95,-1.94 L 45.89,4.09 V 3.76 c 0,-0.64 -0.45,-0.84 -0.89,-0.84 -0.8,0 -1.09,0.5 -1.21,1.11 L 42.34,3.62 c 0.34,-1.06 1.28,-1.78 2.69,-1.78 1.41,0 2.32,0.73 2.32,2.04 V 7.96 H 46.19 L 45.93,6.89 H 45.78 C 45.57,7.66 44.89,8.07 44.1,8.07 43.01,8.07 42.2,7.38 42.2,6.36 Z M 45.88,5.42 V 5.09 l -1.01,0.17 c -0.82,0.14 -1.12,0.48 -1.12,0.92 0,0.44 0.29,0.69 0.79,0.69 0.72,0 1.34,-0.43 1.34,-1.46 z"
     id="path3" />
  <path
     class="cls-1"
     d="m 49.84,4.67 v 3.28 h -1.47 v -6 h 1.47 v 1.17 h 0.14 C 50.23,2.25 50.81,1.91 51.7,1.91 h 0.09 v 1.42 h -0.51 c -0.97,0 -1.43,0.44 -1.43,1.34 z"
     id="path4" />
  <path
     class="cls-1"
     d="m 54.86,6.95 c 0.75,0 1.08,-0.5 1.19,-1.06 l 1.46,0.38 c -0.27,1.12 -1.31,1.78 -2.65,1.78 -1.96,0 -2.91,-1.35 -2.91,-3.07 0,-1.9 1.25,-3.16 2.82,-3.16 1.79,0 2.79,1.2 2.79,3.39 h -4.04 c 0.08,1.16 0.46,1.75 1.34,1.75 z m 0,-4.05 c -0.7,0 -1.15,0.46 -1.27,1.37 h 2.39 C 55.95,3.47 55.57,2.9 54.86,2.9 Z"
     id="path5" />
  <path
     class="cls-1"
     d="m 58.3,0.1 h 1.46 v 3.02 h 0.15 c 0.23,-0.75 0.82,-1.28 1.81,-1.28 1.19,0 2.41,0.94 2.41,3.11 0,2.17 -1.14,3.12 -2.41,3.12 -0.96,0 -1.54,-0.44 -1.81,-1.18 H 59.76 V 7.96 H 58.3 V 0.11 Z m 4.25,4.89 c 0,-1.25 -0.5,-1.94 -1.41,-1.94 -0.91,0 -1.39,0.69 -1.39,1.94 0,1.25 0.49,1.87 1.39,1.87 0.9,0 1.41,-0.67 1.41,-1.87 z"
     id="path6" />
  <path
     class="cls-1"
     d="m 64.62,6.36 c 0,-1.02 0.59,-1.71 1.95,-1.94 L 68.32,4.09 V 3.76 c 0,-0.64 -0.45,-0.84 -0.89,-0.84 -0.79,0 -1.09,0.5 -1.21,1.11 L 64.77,3.62 c 0.34,-1.06 1.28,-1.78 2.69,-1.78 1.41,0 2.32,0.73 2.32,2.04 V 7.96 H 68.62 L 68.36,6.89 H 68.21 C 68,7.66 67.32,8.07 66.53,8.07 c -1.09,0 -1.9,-0.69 -1.9,-1.71 z m 3.7,-0.94 V 5.09 l -1.01,0.17 c -0.83,0.14 -1.12,0.48 -1.12,0.92 0,0.44 0.29,0.69 0.79,0.69 0.72,0 1.34,-0.43 1.34,-1.46 z"
     id="path7" />
  <path
     class="cls-1"
     d="m 72.22,4.29 v 3.66 h -1.46 v -6 h 1.46 v 1.07 h 0.15 c 0.23,-0.77 0.91,-1.18 1.67,-1.18 1.13,0 1.8,0.81 1.8,2.04 V 7.96 H 74.38 V 4.04 c 0,-0.66 -0.32,-1.02 -0.96,-1.02 -0.72,0 -1.2,0.47 -1.2,1.28 z"
     id="path8" />
  <path
     class="cls-1"
     d="m 76.83,0.1 h 1.46 v 4.16 h 0.15 l 2.05,-2.31 h 1.64 l -2.15,2.27 2.37,3.73 H 80.59 L 78.94,5.31 78.3,5.99 V 7.95 H 76.84 V 0.1 Z"
     id="path9" />
  <path
     class="cls-1"
     d="m 84.92,6.95 c 0.75,0 1.08,-0.5 1.19,-1.06 l 1.46,0.38 c -0.27,1.12 -1.31,1.78 -2.65,1.78 -1.96,0 -2.91,-1.35 -2.91,-3.07 0,-1.9 1.25,-3.16 2.82,-3.16 1.8,0 2.79,1.2 2.79,3.39 h -4.04 c 0.08,1.16 0.46,1.75 1.34,1.75 z m 0,-4.05 c -0.7,0 -1.15,0.46 -1.27,1.37 h 2.39 C 86.01,3.47 85.63,2.9 84.92,2.9 Z"
     id="path10" />
  <path
     class="cls-1"
     d="m 89.77,4.29 v 3.66 h -1.46 v -6 h 1.46 v 1.07 h 0.15 c 0.23,-0.77 0.91,-1.18 1.67,-1.18 1.13,0 1.8,0.81 1.8,2.04 V 7.96 H 91.93 V 4.04 c 0,-0.66 -0.32,-1.02 -0.96,-1.02 -0.72,0 -1.2,0.47 -1.2,1.28 z"
     id="path11" />
  <path
     class="cls-1"
     d="M 30.43,12.49 C 30.3,12.16 30.17,11.77 30.11,11.46 h -0.16 v 6.12 h -1.5 V 9.73 h 2.41 l 1.89,5.26 c 0.13,0.34 0.24,0.72 0.32,1.03 h 0.17 V 9.73 h 1.5 v 7.85 h -2.33 l -1.97,-5.09 z"
     id="path12" />
  <path
     class="cls-1"
     d="m 38.39,11.47 c 1.75,0 2.88,1.22 2.88,3.12 0,1.9 -1.14,3.12 -2.88,3.12 -1.74,0 -2.86,-1.22 -2.86,-3.12 0,-1.9 1.13,-3.12 2.86,-3.12 z m 0.01,1.16 c -0.88,0 -1.37,0.7 -1.37,1.95 0,1.25 0.49,1.92 1.37,1.92 0.88,0 1.37,-0.69 1.37,-1.92 0,-1.23 -0.48,-1.95 -1.37,-1.95 z"
     id="path13" />
  <path
     class="cls-1"
     d="m 43.58,14.3 v 3.28 h -1.47 v -6 h 1.47 v 1.17 h 0.14 c 0.25,-0.87 0.83,-1.21 1.72,-1.21 h 0.09 v 1.42 h -0.51 c -0.97,0 -1.43,0.44 -1.43,1.34 z"
     id="path14" />
  <path
     class="cls-1"
     d="m 45.68,17.95 1.47,-0.37 c 0.14,0.64 0.64,0.85 1.28,0.85 0.87,0 1.45,-0.5 1.45,-1.42 v -1 h -0.15 c -0.19,0.85 -0.91,1.27 -1.68,1.27 -1.32,0 -2.35,-0.97 -2.35,-2.9 0,-1.93 1.27,-2.92 2.41,-2.92 0.86,0 1.4,0.5 1.62,1.18 h 0.15 v -1.07 h 1.46 v 5.38 c 0,1.32 -0.79,2.58 -2.91,2.58 -1.54,0 -2.55,-0.7 -2.74,-1.59 z m 4.19,-3.56 c 0,-1.15 -0.5,-1.74 -1.29,-1.74 -0.79,0 -1.39,0.59 -1.39,1.74 0,1.15 0.57,1.68 1.39,1.68 0.82,0 1.29,-0.64 1.29,-1.68 z"
     id="path15" />
  <path
     class="cls-1"
     d="m 54.89,16.58 c 0.75,0 1.08,-0.5 1.19,-1.06 l 1.46,0.38 c -0.27,1.12 -1.31,1.78 -2.65,1.78 -1.96,0 -2.91,-1.35 -2.91,-3.07 0,-1.9 1.25,-3.16 2.82,-3.16 1.79,0 2.79,1.2 2.79,3.39 h -4.04 c 0.08,1.16 0.46,1.75 1.34,1.75 z m 0,-4.05 c -0.7,0 -1.15,0.47 -1.27,1.37 h 2.39 C 55.98,13.1 55.6,12.53 54.89,12.53 Z"
     id="path16" />
  <path
     class="cls-1"
     d="m 11.36,8.37 c 0,5.09 -5.42,9.21 -11.36,9.21 V 9.73 c 5.83,0 10.58,-4.65 10.75,-9.63 h 0.6 v 8.26 z"
     id="path17" />
  <path
     class="cls-1"
     d="m 12.01,9.32 v 8.26 h 0.6 C 12.78,12.61 17.53,7.96 23.36,7.96 V 0.11 C 17.42,0.11 12,4.24 12,9.32 Z"
     id="path18" />
</svg>
