<svg viewBox="0 0 332 56" xmlns="http://www.w3.org/2000/svg">
  <style>path,circle {fill: #280071}</style>
  <g id="Symbol"><path d="M32 16V0H16v8H8v8H0v16h16V16h16" class="cls-1"></path><circle cx="28" cy="44" r="4" class="cls-1"></circle><circle cx="36" cy="44" r="4" class="cls-1"></circle><circle cx="44" cy="44" r="3.5" class="cls-1"></circle><circle cx="28" cy="52" r="3.5" class="cls-1"></circle><circle cx="36" cy="52" r="3" class="cls-1"></circle><circle cx="44" cy="28" r="4" class="cls-1"></circle><circle cx="52" cy="28" r="3.5" class="cls-1"></circle><circle cx="44" cy="36" r="4" class="cls-1"></circle><circle cx="52" cy="36" r="3" class="cls-1"></circle></g>
  <g id="Wordmark"><path d="m272.5 12-5 24h-6l-5-24h-7s4.42 17 6 23c1.32 5 4.05 7.53 9 7.53s7.5-1.5 9-7.5 6-23 6-23Z" class="cls-1"></path><circle cx="112" cy="5.5" r="4.25" class="cls-1"></circle><path d="M89 18h8v-6h-8V0h-6v12h-7v6h7v9c0 9 4.5 15 14.5 15h2.5v-6H89ZM118 26.5c0-9.25-6-14.5-15-14.5v6h9v18h-6v6h18v-6h-6ZM288 18h9v-6c-8.5 0-15 5.49-15 14v10h-4v6h21v-6h-11ZM325 12l-4.5 24H313l-4.5-24h-7l5.5 22c1 4 3 8.5 8 8.5h3V49h-11v6h2a15.67 15.67 0 0 0 15-11c1.42-5.66 8-32 8-32ZM233.5 11.5c-8.56 0-15.5 6.44-15.5 15A15.48 15.48 0 0 0 233 42h13v-6h-21v-6h24v-3.5c0-8.56-6.94-15-15.5-15M242 24h-17v-6h17ZM169 18h10v-6h-10V0h-6v12h-7v6h7v9.5c0 9 4.5 14.5 14.5 14.5h4.5v-6h-13ZM199 11.5A15.16 15.16 0 0 0 183.5 27a15.5 15.5 0 0 0 31 0A15.16 15.16 0 0 0 199 11.5m9 24.5h-18V18h18ZM139.5 11.5c-8.56 0-15.5 6.44-15.5 15A15.48 15.48 0 0 0 139 42h13v-6h-21v-6h24v-3.5c0-8.56-6.94-15-15.5-15M148 24h-17v-6h17Z" class="cls-1"></path></g>
</svg>
