<?xml version="1.0" encoding="UTF-8" standalone="no"?>
<svg
   id="Layer_1"
   version="1.1"
   viewBox="0 0 948 324"
   sodipodi:docname="tieto_logo_blue_rgb.svg"
   inkscape:export-filename="tieto.svg"
   inkscape:export-xdpi="96"
   inkscape:export-ydpi="96"
   width="948"
   height="324"
   inkscape:version="1.4.3 (0d15f75, 2025-12-25)"
   xmlns:inkscape="http://www.inkscape.org/namespaces/inkscape"
   xmlns:sodipodi="http://sodipodi.sourceforge.net/DTD/sodipodi-0.dtd"
   xmlns="http://www.w3.org/2000/svg"
   xmlns:svg="http://www.w3.org/2000/svg">
  <sodipodi:namedview
     id="namedview1"
     pagecolor="#ffffff"
     bordercolor="#000000"
     borderopacity="0.25"
     inkscape:showpageshadow="2"
     inkscape:pageopacity="0.0"
     inkscape:pagecheckerboard="0"
     inkscape:deskcolor="#d1d1d1"
     inkscape:zoom="0.2534545"
     inkscape:cx="108.50074"
     inkscape:cy="9.8637034"
     inkscape:window-width="1498"
     inkscape:window-height="708"
     inkscape:window-x="0"
     inkscape:window-y="40"
     inkscape:window-maximized="0"
     inkscape:current-layer="Layer_1" />
  <!-- Generator: Adobe Illustrator 30.0.0, SVG Export Plug-In . SVG Version: 2.1.1 Build 123)  -->
  <defs
     id="defs1">
    <style
       id="style1">
      .st0 {
        fill: #021e57;
      }
    </style>
  </defs>
  <path
     class="st0"
     d="m 192,0 v 50 h 55 V 0 Z M 338,193.5 V 133 c 0,-11 7,-18 18,-18 h 75.5 c 10,0 15,6 15,14.5 0,9 -4,12.5 -10.5,16 z m 0,66.5 v -14.5 l 125,-61 c 29,-14 38.5,-30 38.5,-56.5 0,-31 -22.5,-58 -62,-58 H 348 c -37,0 -65,28 -65,65 v 123 c 0,37 28,65 65,65 H 497.5 V 278 H 356 c -11,0 -18,-7 -18,-18 z M 192,72 v 251 h 55 V 72 Z M 156,323 V 278 H 73 C 62,278 55,271 55,260 V 117 H 156 V 72 H 55 V 0 H 51.5 L 0,25 v 233 c 0,38 27,65 65,65 z M 883,70 H 783 c -37,0 -65,28 -65,65 v 124 c 0,37 28,65 65,65 h 100 c 37,0 65,-28 65,-65 V 135 C 948,98 920,70 883,70 Z m 10,63 v 128 c 0,11 -7,18 -18,18 h -84 c -11,0 -18,-7 -18,-18 V 133 c 0,-11 7,-18 18,-18 h 84 c 11,0 18,7 18,18 z M 690,323 v -45 h -83 c -11,0 -18,-7 -18,-18 V 117 H 690 V 72 H 589 V 0 h -3.5 L 534,25 v 233 c 0,38 27,65 65,65 z"
     id="path1" />
</svg>
