<svg width="347" height="58" viewBox="0 0 347 58" fill="none" xmlns="http://www.w3.org/2000/svg">
<path fill-rule="evenodd" clip-rule="evenodd" d="M292.681 29.0837L290.575 27.0351L262.796 0V0.000593042L235.072 27.0331L232.969 29.0837L235.078 31.1284L262.796 58L290.569 31.1265L292.681 29.0837ZM288.465 29.0777L262.798 4.09925L237.181 29.0777L262.798 53.9125L288.465 29.0777ZM271.137 19.3331H254.382V23.1514H260.618V38.705H264.9V23.1514H271.137V19.3331ZM12.4374 28.9996L10.234 31.082L4.2528 36.7348L20.1076 52.0015L26.1822 46.2148L28.2525 44.2426L30.3307 46.2071L36.4683 52.0091L52.3227 36.7428L46.2952 31.0897L44.0666 28.9996L46.2952 26.9096L52.3227 21.2565L36.4683 5.99018L30.3307 11.7922L28.2525 13.7566L26.1822 11.7844L20.1076 5.99783L4.2528 21.2645L10.234 26.9171L12.4374 28.9996ZM2.1361 23.3025L0 21.2839L2.11669 19.2457L20.0964 1.93297L28.2604 9.71004L36.4875 1.93297L54.4669 19.2454L56.5838 21.2839L54.4395 23.2948L50.502 26.9877L48.3569 28.9996L50.502 31.0115L54.4395 34.7045L56.5838 36.7154L54.4669 38.7537L36.4875 56.0662L28.2604 48.2892L20.0964 56.0662L2.11669 38.7536L0 36.7154L2.1361 34.6966L6.02751 31.019L8.16415 28.9996L6.02751 26.9803L2.1361 23.3025ZM23.376 19.3331L28.2374 32.9824H28.3725L33.24 19.3331H37.8796L30.7022 38.705H25.9139L18.7265 19.3331H23.376ZM347 49.3233V52.2233H344.027H302.365H299.391V49.3233V8.69979V5.79979H302.365H344.027H347V8.69979V49.3233ZM344.027 8.69979H302.365V49.3233H344.027V8.69979ZM332.56 29.0402C332.56 23.4561 329.153 18.9763 323.211 18.9951C317.268 19.014 313.864 23.4561 313.864 29.0402C313.864 34.6244 317.256 39.0822 323.211 39.0822C329.165 39.0822 332.56 34.6244 332.56 29.0402ZM328.205 29.0402C328.205 33.4227 326.052 35.2545 323.211 35.2545C320.37 35.2545 318.212 33.4227 318.212 29.0402C318.212 24.6577 320.397 22.8232 323.211 22.8232C326.024 22.8232 328.205 24.6577 328.205 29.0402ZM88.3137 51.1088C75.718 51.1088 65.6079 41.2507 65.6079 28.9686C65.6079 16.6771 75.7274 6.76638 88.3137 6.76638C100.91 6.76638 111.083 16.6865 111.083 28.9686C111.083 41.2413 100.919 51.1088 88.3137 51.1088ZM62.6339 28.9686C62.6339 42.8523 74.0755 54.0088 88.3137 54.0088C102.552 54.0088 114.057 42.8523 114.057 28.9686C114.057 15.0849 102.552 3.86638 88.3137 3.86638C74.0755 3.86638 62.6339 15.0849 62.6339 28.9686ZM90.3873 35.2347H93.1433V38.705H83.2744V35.2347H86.1046V22.7937H83.2791V19.3331H93.1433V22.7937H90.3873V35.2347ZM178.83 28.9686C178.83 41.2507 188.94 51.1088 201.536 51.1088C214.141 51.1088 224.305 41.2413 224.305 28.9686C224.305 16.6865 214.132 6.76638 201.536 6.76638C188.95 6.76638 178.83 16.6771 178.83 28.9686ZM201.536 54.0088C187.298 54.0088 175.856 42.8523 175.856 28.9686C175.856 15.0849 187.298 3.86638 201.536 3.86638C215.775 3.86638 227.28 15.0849 227.28 28.9686C227.28 42.8523 215.775 54.0088 201.536 54.0088ZM206.159 35.2347H203.402V22.7937H206.159V19.3331H196.294V22.7937H199.119V35.2347H196.289V38.705H206.159V35.2347ZM168.84 52.2272V49.3273V8.70371V5.80372H165.866H124.205H121.23V8.70371V49.3273V52.2272H124.205H165.866H168.84ZM124.205 8.70371H165.866V49.3273H124.205V8.70371ZM146.563 27.1634C149.454 28.0825 152.869 29.4351 152.869 33.0695C152.869 37.1879 148.98 39.0825 144.984 39.0825C142.314 39.0825 140.009 38.2125 138.205 37.2641V33.3445H138.349C140.153 34.4756 143.05 35.5444 145.142 35.5444C147.352 35.5444 148.457 34.398 148.457 33.2108C148.457 31.973 146.538 31.3716 144.207 30.6408C143.833 30.5236 143.449 30.4031 143.06 30.2761C140.607 29.4279 137.998 27.8594 137.998 24.7992C137.998 21.2861 141.086 18.9951 145.142 18.9951C147.993 18.9951 150.275 19.8748 152.079 20.8221V24.8084H151.934C150.058 23.7482 147.235 22.5332 145.142 22.5332C143.701 22.5332 142.408 23.2872 142.408 24.5871C142.408 25.731 143.969 26.2691 146.257 27.058C146.358 27.0927 146.459 27.1278 146.563 27.1634Z" fill="black"/>
</svg>