<?xml version="1.0" encoding="UTF-8"?>
<svg id="Layer_1" data-name="Layer 1" xmlns="http://www.w3.org/2000/svg" viewBox="0 0 2027.29 500">
  <defs>
    <style>
      .cls-1 {
        fill: #1a1a1a;
      }
    </style>
  </defs>
  <path class="cls-1" d="M585.45,351.88c-12.18,11.23-29.31,16.84-51.37,16.84-11.8,0-23.21-2.09-34.25-6.28-11.04-4.18-20.93-11.03-29.68-20.55-8.76-9.51-15.22-22.06-19.41-37.67-2.98-11.09-4.29-24.06-3.99-38.81h203.76c3.8-19.78,4-38.43.57-55.94-3.43-17.5-10.27-33.01-20.55-46.52-10.27-13.5-23.4-24.26-39.38-32.25-15.98-7.99-35.01-11.99-57.08-11.99-20.17,0-38.44,3.52-54.8,10.56-16.37,7.04-30.35,17.03-41.95,29.96-11.61,12.94-20.55,28.16-26.83,45.66-6.28,17.5-9.42,36.73-9.42,57.65s2.85,38.72,8.56,55.65c5.71,16.94,14.17,31.96,25.4,45.09,11.22,13.13,25.11,23.5,41.67,31.11,16.55,7.61,35.29,11.42,56.22,11.42,22.83,0,42.71-4,59.65-11.99,16.93-7.99,30.63-18.83,41.1-32.53,10.46-13.7,16.64-29.48,18.55-47.37l-45.09-3.42c-2.28,16.36-9.52,30.16-21.69,41.38ZM462.44,192.92c7.42-11.79,17.21-21.12,29.39-27.97,12.17-6.85,26.06-10.27,41.67-10.27,17.5,0,31.68,3.71,42.52,11.13,10.85,7.42,18.84,17.03,23.97,28.83,5.14,11.8,7.32,24.74,6.56,38.81h-157.53c1.52-15.21,5.99-28.73,13.41-40.52Z"/>
  <path class="cls-1" d="M851.3,405.82c-14.08,0-27.49-2.48-40.24-7.42-12.75-4.94-24.07-11.89-33.96-20.83-9.9-8.94-17.69-19.69-23.4-32.25v53.08h-46.8V0h46.8v178.65c6.08-12.56,14.07-23.3,23.97-32.25,9.89-8.94,21.12-15.78,33.68-20.55,12.56-4.75,25.87-7.14,39.95-7.14,17.5,0,33.58,3.43,48.23,10.27,14.64,6.85,27.49,16.75,38.53,29.68,11.04,12.94,19.5,28.07,25.4,45.38,5.89,17.32,8.85,36.82,8.85,58.51s-2.95,40.15-8.85,57.65c-5.9,17.51-14.37,32.63-25.4,45.38-11.04,12.75-23.88,22.64-38.53,29.68-14.65,7.04-30.73,10.56-48.23,10.56ZM754.27,262.56c0,21.69,3.51,40.34,10.56,55.94,7.04,15.61,17.21,27.68,30.54,36.25,13.32,8.56,28.34,12.84,45.09,12.84,12.55,0,24.06-2.47,34.53-7.42,10.46-4.94,19.5-11.99,27.11-21.12,7.61-9.13,13.41-20.26,17.41-33.39s5.99-27.49,5.99-43.09c0-21.69-3.62-40.43-10.84-56.22-7.24-15.78-17.13-28.06-29.68-36.81-12.56-8.75-27.4-13.13-44.52-13.13-12.56,0-24.26,2.48-35.1,7.42-10.84,4.95-19.98,11.99-27.4,21.12-7.42,9.13-13.23,20.26-17.41,33.39-4.19,13.13-6.28,27.88-6.28,44.24Z"/>
  <path class="cls-1" d="M1125.14,405.82c-23.21,0-43.58-4-61.07-11.99-17.51-7.99-31.39-19.31-41.67-33.96-10.27-14.65-15.98-32.25-17.12-52.8l45.09-2.86c.38,13.32,3.8,25.03,10.27,35.1,6.47,10.09,15.22,17.89,26.26,23.4,11.03,5.52,23.97,8.28,38.81,8.28,12.17,0,22.92-1.9,32.25-5.71,9.32-3.8,16.36-9.13,21.12-15.98,4.76-6.85,7.14-14.64,7.14-23.4,0-10.65-3.14-19.02-9.42-25.11-6.28-6.08-14.37-11.03-24.26-14.84-9.9-3.8-21.03-7.04-33.39-9.7-12.37-2.66-24.54-5.71-36.53-9.13-11.99-3.42-23.12-7.71-33.39-12.84-10.27-5.14-18.36-12.07-24.26-20.83-5.9-8.75-8.85-20.16-8.85-34.25,0-16.74,4.47-31.11,13.41-43.09,8.94-11.99,21.21-21.21,36.82-27.68,15.6-6.47,33.67-9.7,54.22-9.7s38.05,3.34,53.65,9.99c15.6,6.66,27.97,15.98,37.1,27.97,9.13,11.99,14.07,25.97,14.84,41.95l-43.38,2.85c-1.14-13.7-7.04-25.3-17.69-34.82-10.66-9.51-25.68-14.27-45.09-14.27-11.42,0-21.41,1.81-29.97,5.42-8.56,3.62-15.32,8.47-20.26,14.56-4.95,6.09-7.42,13.32-7.42,21.69,0,9.52,2.94,17.04,8.85,22.55,5.9,5.52,13.99,9.9,24.26,13.13,10.27,3.24,21.59,6.19,33.96,8.85,12.36,2.67,24.54,5.71,36.53,9.13,11.99,3.42,23.02,7.9,33.1,13.41,10.08,5.52,18.27,13.13,24.54,22.83,6.28,9.7,9.42,21.98,9.42,36.82,0,17.89-4.48,33.2-13.41,45.95-8.95,12.75-21.5,22.46-37.67,29.11-16.18,6.65-35.1,9.99-56.79,9.99Z"/>
  <path class="cls-1" d="M1428.8,347.6c-5.33,6.85-11.7,11.7-19.12,14.56-7.42,2.85-14.37,4.28-20.83,4.28-11.8,0-21.31-3.9-28.54-11.7-7.23-7.8-10.84-20.45-10.84-37.96v-154.68h83.9v-36.53h-83.9V42.24h-46.23v83.33h-54.23v36.53h54.23v160.96c0,17.89,3.42,33.02,10.27,45.38,6.85,12.37,16.27,21.69,28.25,27.97,11.99,6.28,25.4,9.42,40.24,9.42,7.99,0,15.5-.77,22.55-2.28,7.04-1.52,13.5-3.81,19.41-6.85,5.89-3.04,10.93-6.28,15.13-9.7l-10.27-39.38Z"/>
  <path class="cls-1" d="M1640.43,351.88c-12.18,11.23-29.31,16.84-51.37,16.84-11.8,0-23.21-2.09-34.25-6.28-11.04-4.18-20.93-11.03-29.68-20.55-8.76-9.51-15.22-22.06-19.4-37.67-2.98-11.09-4.29-24.06-3.99-38.81h203.76c3.8-19.78,4-38.43.57-55.94-3.42-17.5-10.27-33.01-20.55-46.52-10.27-13.5-23.4-24.26-39.38-32.25-15.98-7.99-35.01-11.99-57.08-11.99-20.17,0-38.44,3.52-54.8,10.56-16.36,7.04-30.35,17.03-41.95,29.96-11.61,12.94-20.55,28.16-26.82,45.66-6.28,17.5-9.42,36.73-9.42,57.65s2.85,38.72,8.56,55.65c5.71,16.94,14.17,31.96,25.4,45.09,11.22,13.13,25.11,23.5,41.67,31.11,16.55,7.61,35.29,11.42,56.22,11.42,22.83,0,42.71-4,59.65-11.99,16.93-7.99,30.63-18.83,41.1-32.53,10.46-13.7,16.64-29.48,18.55-47.37l-45.09-3.42c-2.28,16.36-9.52,30.16-21.69,41.38ZM1517.43,192.92c7.42-11.79,17.21-21.12,29.4-27.97,12.17-6.85,26.06-10.27,41.67-10.27,17.5,0,31.68,3.71,42.52,11.13,10.84,7.42,18.83,17.03,23.97,28.83,5.14,11.8,7.32,24.74,6.56,38.81h-157.54c1.52-15.21,5.99-28.73,13.41-40.52Z"/>
  <path class="cls-1" d="M1906.29,405.82c-14.08,0-27.49-2.38-40.24-7.14-12.75-4.75-24.07-11.5-33.96-20.26-9.9-8.75-17.69-19.41-23.4-31.96v153.54h-46.8V125.57h46.8v53.08c5.71-12.56,13.5-23.3,23.4-32.25,9.89-8.94,21.21-15.78,33.96-20.55,12.75-4.75,26.35-7.14,40.81-7.14,17.12,0,33.01,3.43,47.66,10.27,14.64,6.85,27.49,16.75,38.53,29.68,11.03,12.94,19.5,28.07,25.4,45.38,5.9,17.32,8.85,36.82,8.85,58.51s-2.95,40.15-8.85,57.65c-5.9,17.51-14.37,32.63-25.4,45.38-11.04,12.75-23.88,22.64-38.53,29.68-14.65,7.04-30.73,10.56-48.23,10.56ZM1808.69,262.56c0,22.07,3.61,41.01,10.84,56.79,7.22,15.79,17.41,27.78,30.54,35.96,13.13,8.19,27.87,12.27,44.24,12.27,12.93,0,24.73-2.47,35.39-7.42,10.65-4.94,19.78-11.99,27.4-21.12,7.61-9.13,13.41-20.16,17.41-33.1,3.99-12.93,5.99-27.4,5.99-43.38,0-22.07-3.62-40.9-10.84-56.51-7.23-15.6-17.22-27.77-29.97-36.53-12.75-8.75-27.88-13.13-45.38-13.13-12.18,0-23.6,2.48-34.25,7.42-10.66,4.95-19.79,11.8-27.4,20.55-7.61,8.76-13.51,19.79-17.69,33.11-4.19,13.32-6.28,28.35-6.28,45.09Z"/>
  <g>
    <g>
      <polygon class="cls-1" points="360.66 261.99 315.58 261.99 270.5 398.4 315.58 398.4 360.66 261.99"/>
      <polygon class="cls-1" points="180.33 261.99 225.41 261.99 270.5 398.4 225.41 398.4 180.33 261.99"/>
    </g>
    <g>
      <polygon class="cls-1" points="360.66 125.57 315.58 125.57 270.5 261.99 315.58 261.99 360.66 125.57"/>
      <polygon class="cls-1" points="180.33 125.57 225.41 125.57 270.5 261.99 225.41 261.99 180.33 125.57"/>
    </g>
    <g>
      <polygon class="cls-1" points="180.33 261.99 135.25 261.99 90.17 398.4 135.25 398.4 180.33 261.99"/>
      <polygon class="cls-1" points="0 261.99 45.08 261.99 90.16 398.4 45.08 398.4 0 261.99"/>
    </g>
    <g>
      <polygon class="cls-1" points="180.33 125.57 135.25 125.57 90.17 261.99 135.25 261.99 180.33 125.57"/>
      <polygon class="cls-1" points="0 125.57 45.08 125.57 90.16 261.99 45.08 261.99 0 125.57"/>
    </g>
  </g>
</svg>