<?xml version="1.0" encoding="UTF-8" standalone="no"?>
<!-- Created with Inkscape (http://www.inkscape.org/) -->

<svg
   width="125.39438mm"
   height="28.884102mm"
   viewBox="0 0 125.39438 28.884102"
   version="1.1"
   id="svg5"
   inkscape:version="1.1.1 (3bf5ae0d25, 2021-09-20)"
   sodipodi:docname="computas.svg"
   xmlns:inkscape="http://www.inkscape.org/namespaces/inkscape"
   xmlns:sodipodi="http://sodipodi.sourceforge.net/DTD/sodipodi-0.dtd"
   xmlns="http://www.w3.org/2000/svg"
   xmlns:svg="http://www.w3.org/2000/svg">
  <sodipodi:namedview
     id="namedview7"
     pagecolor="#ffffff"
     bordercolor="#666666"
     borderopacity="1.0"
     inkscape:pageshadow="2"
     inkscape:pageopacity="0.0"
     inkscape:pagecheckerboard="0"
     inkscape:document-units="mm"
     showgrid="false"
     inkscape:zoom="0.64052329"
     inkscape:cx="255.26004"
     inkscape:cy="336.44366"
     inkscape:window-width="1920"
     inkscape:window-height="1137"
     inkscape:window-x="-8"
     inkscape:window-y="-8"
     inkscape:window-maximized="1"
     inkscape:current-layer="layer1" />
  <defs
     id="defs2" />
  <g
     inkscape:label="Lag 1"
     inkscape:groupmode="layer"
     id="layer1"
     transform="translate(-37.679723,-59.498143)">
    <g
       id="g17"
       transform="matrix(0.03527778,0,0,-0.03527778,37.679585,88.382108)">
      <path
         d="M 415.34,759.391 C 223.063,761.941 63.2773,606.645 60.5977,414.367 57.8789,218.758 215.621,59.332 410.609,59.332 c 117.582,0 221.614,57.981 285.09,146.906 33.141,46.426 55.223,101.289 62.399,160.742 0.929,7.684 -5.098,14.454 -12.832,14.454 H 595.805 c -6.082,0 -11.282,-4.258 -12.578,-10.207 -17.383,-79.336 -88.059,-138.731 -172.618,-138.731 -99.898,0 -180.441,82.891 -176.597,183.645 3.476,91.168 77.461,165.625 168.609,169.636 86.277,3.805 159.617,-54.304 179.418,-133.613 1.434,-5.742 6.563,-9.793 12.484,-9.793 h 150.082 c 7.809,0 13.86,6.895 12.809,14.633 -7.965,58.516 -30.379,112.426 -63.543,158.027 -62.769,86.309 -164.004,142.844 -278.531,144.36"
         style="fill:#95dce4;fill-opacity:1;fill-rule:nonzero;stroke:none"
         id="path19" />
      <path
         d="M 758.098,366.98 C 750.922,307.527 728.84,252.664 695.699,206.238 632.223,117.313 528.191,59.332 410.609,59.332 215.621,59.332 57.8789,218.758 60.5977,414.367 63.2773,606.645 223.063,761.941 415.34,759.391 c 114.527,-1.516 215.762,-58.051 278.531,-144.36 33.164,-45.601 55.578,-99.511 63.543,-158.027 1.051,-7.738 -5,-14.633 -12.809,-14.633 H 594.523 c -5.921,0 -11.05,4.051 -12.484,9.793 -19.801,79.309 -93.141,137.418 -179.418,133.613 -91.148,-4.011 -165.133,-78.468 -168.609,-169.636 -3.844,-100.754 76.699,-183.645 176.597,-183.645 84.559,0 155.235,59.395 172.618,138.731 1.296,5.949 6.496,10.207 12.578,10.207 h 149.461 c 7.734,0 13.761,-6.77 12.832,-14.454 z m 59.32,75.547 c -5.012,62.582 -24.105,121.18 -54.102,172.657 C 692.375,736.926 560.441,818.758 409.379,818.758 183.285,818.758 0.00390625,635.473 0.00390625,409.379 0.00390625,183.289 183.285,-0.00390625 409.379,-0.00390625 c 152.226,0 285.043,83.09770625 355.578,206.39890625 29.898,52.253 48.59,111.746 52.844,175.195 0.617,9.187 0.957,18.445 0.957,27.789 0,11.16 -0.465,22.211 -1.34,33.148"
         style="fill:#1b3356;fill-opacity:1;fill-rule:nonzero;stroke:none"
         id="path21" />
      <path
         d="m 1519.41,311.832 c -42.58,0 -74.69,33.703 -74.69,78.398 0,44.688 32.11,78.391 74.69,78.391 42.59,0 74.7,-33.703 74.7,-78.391 0,-44.695 -32.11,-78.398 -74.7,-78.398 z m 0,210.914 c -74.94,0 -131.46,-56.969 -131.46,-132.516 0,-75.554 56.52,-132.527 131.46,-132.527 74.95,0 131.47,56.973 131.47,132.527 0,75.547 -56.52,132.516 -131.47,132.516"
         style="fill:#1b3356;fill-opacity:1;fill-rule:nonzero;stroke:none"
         id="path23" />
      <path
         d="m 1315.73,347.176 c -1.42,1.015 -3.37,0.691 -4.45,-0.676 -18.18,-23.008 -40.75,-34.668 -67.12,-34.668 -46.47,0 -78.92,32.238 -78.92,78.398 0,44.688 32.57,78.391 75.75,78.391 32.39,0 53.27,-19.754 63.8,-33.324 1.14,-1.477 3.24,-1.734 4.68,-0.547 l 37.26,30.84 c 1.35,1.117 1.61,3.129 0.55,4.527 -25.04,33.012 -64.53,52.629 -106.29,52.629 -75.55,0 -132.52,-56.969 -132.52,-132.516 0,-75.554 58.33,-132.527 135.69,-132.527 45.08,0 89.41,22.793 111.42,56.992 0.94,1.465 0.53,3.438 -0.88,4.453 l -38.97,28.028"
         style="fill:#1b3356;fill-opacity:1;fill-rule:nonzero;stroke:none"
         id="path25" />
      <path
         d="m 3461.82,418.773 c -25.24,6.446 -41.78,11.719 -41.78,25.766 0,19.086 21.5,27.777 41.48,27.777 16.59,0 32.94,-5.683 48.61,-16.898 1.45,-1.039 3.48,-0.766 4.53,0.68 l 26.16,35.906 c 1.06,1.437 0.78,3.488 -0.62,4.57 -22.59,17.367 -50.1,26.172 -81.85,26.172 -45.8,0 -95.09,-25.297 -95.09,-80.84 0,-30.898 20.49,-54.047 59.23,-66.968 8.83,-2.938 17.82,-5.243 26.53,-7.469 30.2,-7.735 48.71,-13.399 48.71,-31.543 0,-17.383 -20.29,-27.774 -39.91,-27.774 -23.05,0 -46.69,8.524 -68.58,24.696 -1.47,1.086 -3.53,0.8 -4.6,-0.692 l -26.22,-36.867 c -1.02,-1.434 -0.73,-3.445 0.65,-4.531 28.27,-21.934 61.83,-33.055 99.81,-33.055 46.36,0 95.61,27.781 95.61,79.266 0,58.008 -64.94,74.683 -92.67,81.804"
         style="fill:#1b3356;fill-opacity:1;fill-rule:nonzero;stroke:none"
         id="path27" />
      <path
         d="m 2019.3,522.746 c -44.45,0 -71.54,-18.144 -91.84,-37.308 -1.31,-1.235 -3.32,-1.145 -4.54,0.175 -22.28,24.004 -52.4,37.133 -85.53,37.133 -28.27,0 -53.11,-12.051 -67.15,-22.812 -0.95,-0.727 -2.28,-0.063 -2.28,1.129 v 13.152 c 0,1.805 -1.47,3.269 -3.27,3.269 h -48.65 c -1.81,0 -3.27,-1.464 -3.27,-3.269 V 266.246 c 0,-1.805 1.46,-3.269 3.27,-3.269 h 50.22 c 1.81,0 3.27,1.464 3.27,3.269 v 167.91 c 0,0.801 0.26,1.543 0.79,2.141 9.76,11.016 32.87,32.324 65.48,32.324 17.7,0 34.68,-7.637 45.44,-20.445 9.42,-11.078 13.44,-25.258 13.44,-47.403 V 266.246 c 0,-1.805 1.47,-3.269 3.27,-3.269 h 50.24 c 1.79,0 3.26,1.464 3.26,3.269 v 126.621 c 0,15.215 -1.17,28.688 -3.59,41.047 -0.21,1.051 0.1,2.106 0.85,2.859 15.36,15.332 37.14,31.848 70.59,31.848 16.95,0 32.93,-7.445 43.85,-20.445 9.42,-11.078 13.44,-25.258 13.44,-47.403 V 266.246 c 0,-1.805 1.47,-3.269 3.27,-3.269 h 50.23 c 1.81,0 3.27,1.464 3.27,3.269 v 126.621 c 0,40.598 -7,66.61 -23.4,86.969 -21.7,27.277 -54.74,42.91 -90.66,42.91"
         style="fill:#1b3356;fill-opacity:1;fill-rule:nonzero;stroke:none"
         id="path29" />
      <path
         d="m 2992.55,311.668 c -0.4,1.707 -2.06,2.82 -3.79,2.461 -6.85,-1.445 -16.72,-2.297 -23.45,-2.297 -13.15,0 -25.88,4.805 -31.74,12.023 -5.46,6.368 -6.59,16.387 -6.59,29.461 v 109.403 c 0,1.804 1.47,3.265 3.28,3.265 h 45.28 c 1.8,0 3.26,1.465 3.26,3.27 v 44.961 c 0,1.805 -1.46,3.269 -3.26,3.269 h -45.28 c -1.81,0 -3.28,1.457 -3.28,3.266 v 62.008 c 0,1.805 -1.46,3.265 -3.26,3.265 h -50.23 c -1.81,0 -3.26,-1.46 -3.26,-3.265 V 520.75 c 0,-1.809 -1.47,-3.266 -3.27,-3.266 h -43.42 c -1.81,0 -3.26,-1.464 -3.26,-3.269 v -44.961 c 0,-1.805 1.45,-3.27 3.26,-3.27 h 43.42 c 1.8,0 3.27,-1.461 3.27,-3.265 V 355.953 c 0,-30.281 6.83,-52.566 20.87,-68.113 17.39,-19.719 42.51,-30.137 72.62,-30.137 13.08,0 27.25,1.766 37.17,4.559 1.66,0.468 2.61,2.199 2.22,3.867 l -10.56,45.539"
         style="fill:#1b3356;fill-opacity:1;fill-rule:nonzero;stroke:none"
         id="path31" />
      <path
         d="m 3239.34,346.109 c 0,-0.75 -0.25,-1.492 -0.71,-2.089 -15.86,-20.196 -39.61,-32.188 -63.97,-32.188 -44.26,0 -78.93,34.434 -78.93,78.398 0,44.688 32.8,78.391 76.28,78.391 25.58,0 50.3,-11.996 66.59,-32.199 0.48,-0.594 0.74,-1.352 0.74,-2.117 z m 53.49,171.375 h -48.65 c -1.8,0 -3.26,-1.464 -3.26,-3.269 v -13.43 c 0,-0.965 -1.08,-1.492 -1.86,-0.918 -20.66,15.188 -44.94,22.879 -72.32,22.879 -22.84,0 -44.4,-5.629 -62.33,-16.273 -40.98,-24.25 -65.44,-67.7 -65.44,-116.243 0,-48.417 24.26,-91.667 64.91,-115.703 17.73,-10.535 41.62,-16.824 63.92,-16.824 26.49,0 51.38,7.988 71.14,22.656 0.83,0.614 1.98,0.047 1.98,-0.988 v -13.125 c 0,-1.805 1.46,-3.269 3.26,-3.269 h 48.65 c 1.81,0 3.28,1.464 3.28,3.269 v 247.969 c 0,1.805 -1.47,3.269 -3.28,3.269"
         style="fill:#1b3356;fill-opacity:1;fill-rule:nonzero;stroke:none"
         id="path33" />
      <path
         d="m 2332.53,311.832 c -24.36,0 -48.11,11.992 -63.97,32.188 -0.46,0.597 -0.72,1.339 -0.72,2.089 v 88.196 c 0,0.765 0.27,1.523 0.75,2.117 16.29,20.207 41,32.199 66.58,32.199 43.48,0 76.28,-33.703 76.28,-78.391 0,-43.964 -34.67,-78.398 -78.92,-78.398 z m 70.25,194.637 c -17.94,10.648 -39.5,16.277 -62.34,16.277 -27.27,0 -51.46,-7.629 -72.07,-22.695 -0.88,-0.649 -2.11,-0.047 -2.11,1.047 v 13.117 c 0,1.805 -1.45,3.269 -3.26,3.269 h -48.65 c -1.81,0 -3.26,-1.464 -3.26,-3.269 v -374.52 c 0,-1.797 1.45,-3.261 3.26,-3.261 h 50.22 c 1.81,0 3.27,1.464 3.27,3.261 v 138.68 c 0,1.055 1.19,1.633 2.04,1.008 19.68,-14.387 43.01,-21.68 69.51,-21.68 22.28,0 46.18,6.289 63.91,16.817 40.65,24.043 64.92,67.293 64.92,115.71 0,48.543 -24.47,91.993 -65.44,116.239"
         style="fill:#1b3356;fill-opacity:1;fill-rule:nonzero;stroke:none"
         id="path35" />
      <path
         d="m 2760.25,517.484 h -50.24 c -1.8,0 -3.26,-1.464 -3.26,-3.269 v -167.91 c 0,-0.801 -0.25,-1.543 -0.79,-2.137 -9.76,-11.016 -32.86,-32.336 -65.47,-32.336 -17.7,0 -34.7,7.648 -45.45,20.449 -9.42,11.086 -13.45,25.266 -13.45,47.403 v 134.531 c 0,1.805 -1.45,3.269 -3.26,3.269 h -50.22 c -1.81,0 -3.27,-1.464 -3.27,-3.269 V 387.594 c 0,-40.594 7,-66.61 23.39,-86.981 21.72,-27.265 54.77,-42.91 90.67,-42.91 29.07,0 53.5,12.285 67.51,22.606 0.82,0.597 1.92,0.019 1.92,-0.996 v -13.067 c 0,-1.805 1.47,-3.269 3.26,-3.269 h 48.66 c 1.8,0 3.27,1.464 3.27,3.269 v 247.969 c 0,1.805 -1.47,3.269 -3.27,3.269"
         style="fill:#1b3356;fill-opacity:1;fill-rule:nonzero;stroke:none"
         id="path37" />
    </g>
  </g>
</svg>
