<?xml version="1.0" encoding="UTF-8"?>
<svg id="Layer_1" data-name="Layer 1" xmlns="http://www.w3.org/2000/svg" viewBox="0 0 620.32 193.08">
  <defs>
    <style>
      .cls-1 {
        fill: #ff303b;
      }
    </style>
  </defs>
  <path class="cls-1" d="M613.09,123.11v-.02c-4.71-5.25-11.14-9.3-19.13-12.05-7.71-2.7-16.77-5.11-26.9-7.16-4.4-.92-8.37-1.89-11.82-2.88-.88-.26-1.76-.52-2.55-.76-.41-.14-.79-.28-1.19-.43l-.3-.11c-4.37-1.82-7.17-4.8-8.31-8.85-1.13-3.97-.14-8.5,2.64-12.09,2.12-2.75,6.06-6.13,12.67-6.59,14.14-.53,21.8,11.5,22.55,19.73l.2,2.28,34.83.2-.41-2.89c-1.89-13.13-7.78-23.56-17.51-31.02-9.58-7.34-22.64-11.07-39.09-11.07h-.03c-11.68.08-21.76,2.04-29.94,5.83-8.37,3.89-14.84,9.18-19.21,15.7-4.42,6.54-6.63,14.08-6.59,22.41.04,6.93,1.6,12.82,4.64,17.5,3.01,4.64,7.07,8.49,12.08,11.44,4.86,2.84,10.45,5.22,16.61,7.07,5.87,1.76,12.14,3.29,18.6,4.53,3.91.81,7.52,1.66,10.71,2.51.93.28,9.17,2.91,12.26,9.09,1.47,2.95,2.16,6.49.77,10.27-1.3,3.54-4.19,6.38-6.93,8.22-2.79,1.87-6.07,2.94-9.7,3.19-.31,0-.62.01-.93.01-15.13,0-22.51-12.53-23.61-20.6l-.15-1.09h-37.97l.16,1.4c.93,8.39,3.95,16.04,8.97,22.75,5.29,7.05,12.68,12.63,21.93,16.59,8.99,3.85,19.72,5.8,31.91,5.8h.39c11.56-.04,21.76-1.99,30.32-5.82,8.59-3.84,15.37-9.28,20.16-16.19,4.77-6.97,7.16-14.96,7.11-23.74-.04-9.96-2.47-17.75-7.22-23.16Z"/>
  <path class="cls-1" d="M481.09,82.43c-5.64-10.09-13.62-18.18-23.71-24.05-9.99-5.85-21.82-8.82-35.46-8.82-13.81.08-26.1,3.29-36.53,9.51-10.53,6.26-18.75,14.96-24.45,25.86-5.68,10.84-8.52,23.47-8.44,37.56.04,13.72,3.04,26.01,8.92,36.53,5.95,10.52,14.29,18.79,24.8,24.55,10.44,5.73,22.47,8.63,35.77,8.63h.55c10.5-.04,20.22-2.08,28.91-6.07,8.52-3.93,15.88-9.43,21.88-16.35,5.76-6.69,9.96-14.32,12.49-22.67l.49-1.63h-39.6l-.27.91c-3.03,10.28-10.04,15.58-22.01,16.66-19.35.83-30.21-15.2-32.25-30.85l96.66-.44.31-2.16c.33-2.4.5-4.7.5-7.02l-.04-5.85c-.04-12.65-2.91-24.18-8.52-34.28ZM394.38,108.05c-.34-8.92,2.98-18.96,8.64-25.88,4.75-5.81,10.8-9.21,17.41-9.82,20.11-.84,27.86,20.91,29.81,35.7h-55.85Z"/>
  <path class="cls-1" d="M250.86,2.62h-.14c-6.19.02-11.38,2.06-15.42,6.05-4.05,3.99-6.09,9.1-6.07,15.17.02,6.07,2.11,11.16,6.19,15.12,4.04,3.92,9.2,5.91,15.32,5.91h.14c6.34-.02,11.61-2.06,15.66-6.05,4.05-3.99,6.09-9.09,6.07-15.17-.02-6.07-2.11-11.16-6.19-15.12-4.05-3.92-9.28-5.9-15.56-5.9Z"/>
  <path class="cls-1" d="M161.31.91c-16.39,51.36-42.67,93.15-58.61,93.15S60.53,52.27,44.14.91l-.28-.88L0,0v193.04h39.16v-109.21c20.4,30.85,41.75,46.48,63.58,46.48h0c21.75,0,43.09-15.62,63.49-46.44v109.17h39.16V0l-43.82.03-.28.88Z"/>
  <rect class="cls-1" x="231.34" y="60.32" width="39.16" height="132.76"/>
  <rect class="cls-1" x="296.71" y=".07" width="39.16" height="193.01"/>
</svg>