<?xml version="1.0" encoding="utf-8"?>
<!-- Generator: Adobe Illustrator 24.1.3, SVG Export Plug-In . SVG Version: 6.00 Build 0)  -->
<svg version="1.1" id="Layer_1" xmlns="http://www.w3.org/2000/svg" xmlns:xlink="http://www.w3.org/1999/xlink" x="0px" y="0px"
	 viewBox="0 0 1920 392" style="enable-background:new 0 0 1920 392;" xml:space="preserve">
<style type="text/css">
	.st0{fill:#32003C;}
</style>
<g>
	<path class="st0" d="M578.6,377.8c-47.2,0-70.2-25.1-70.2-76.7v-230c0-6.1-2.7-8.8-8.8-8.8h-23.8V14.1h50.9
		c24,0,34.7,10.7,34.7,34.7l0.8,249.3c0,24.6,7,34.1,25,34.1c7.9,0,13.4-0.5,13.5-0.5l2.6-0.2l-0.6,45.2l-2.1,0.2
		C600.5,376.8,590.2,377.8,578.6,377.8z"/>
</g>
<g>
	<path class="st0" d="M967.9,378c-47.2,0-70.2-25.1-70.2-76.7V175.8c0-6.1-2.7-8.8-8.8-8.8H865v-53.4H916c24,0,34.7,10.7,34.7,34.7
		l0.8,149.9c0,24.6,7,34.1,25,34.1c7.9,0,13.4-0.5,13.5-0.5l2.6-0.2l-0.6,45.2l-2.1,0.2C989.8,377,979.5,378,967.9,378z"/>
</g>
<g>
	<path class="st0" d="M762.8,377h-119v-48.2h23.8c6.1,0,8.8-2.7,8.8-8.8V171.2c0-6.1-2.7-8.8-8.8-8.8h-23.1v-46.8h49.8
		c23.8,0,35.3,10.6,35.3,32.3v16.2c0,1.9,0,3.6-0.1,5.3c15.5-35.4,44.9-56.9,79-56.9c6.7,0,13.3,1,13.5,1l2,0.3v53.6l-2.8-0.7
		c-0.1,0-6.5-1.5-14.2-1.5c-31.5,0-58.9,23.1-69.9,58.8c-4.3,14-7,32.8-7,49.2V320c0,6.1,2.7,8.8,8.8,8.8h23.8V377z"/>
</g>
<g>
	<path class="st0" d="M919.1,77.1c-17.6,0-31.9-14.3-31.9-32c0-17.6,14.3-31.9,31.9-31.9c17.6,0,31.9,14.3,31.9,31.9
		C951,62.8,936.7,77.1,919.1,77.1z"/>
</g>
<g>
	<path class="st0" d="M1291.3,377.1h-36.7c-24.8,0-33.2-4.7-44.7-25l-46.7-86.3c-4.8-8.4-15-9.4-23.3-9.4h-18.1l-0.2,63.8
		c0,6.1,2.7,8.8,8.8,8.8h23.8V377h-119v-48.2h23.8c6.1,0,8.8-2.7,8.8-8.8l0-250.4c0-6.1-2.7-8.8-8.8-8.8h-23.1V14.1h51.1
		c19.2,0,34.8,15.6,34.8,34.8V210h20.5c6.4,0,18.2-1.3,25.1-10.3l60-84.2h62.1l-72.2,99.1c-7.9,10.7-14.1,16-17.4,18.3
		c3.5,2.3,9.6,7.5,15.6,18.8l38.1,69.5c3.6,7.1,7.6,8.9,19.8,8.9h18.1V377.1z"/>
</g>
<g>
	<path class="st0" d="M1449.4,383.2c-80.5,0-138.9-57.6-138.9-136.9c0-80.6,54-136.9,131.3-136.9c34.8,0,63.9,12.5,84.1,36
		c18.6,21.7,28.9,52.5,28.9,86.6c0,6.7-1.5,20-1.5,20.6l-0.2,2.1h-186.9c4.3,56,45.9,81.1,85.9,81.1c42.7,0,73.2-29,73.5-29.3l2.1-2
		l23.8,39.1l-1.3,1.3C1549.6,345.4,1510.6,383.2,1449.4,383.2z M1368.4,214.1h130.8c-2.2-37-24.8-60.8-58-60.8
		C1403.9,153.2,1376.2,176.5,1368.4,214.1z"/>
</g>
<g>
	<path class="st0" d="M1902,377.8h-58.1c-24.1,0-34.8-10.7-34.8-34.8V222.2c0-37.3-7.8-62.1-45.9-62.1c-37.8,0-68.8,24-79,61.2
		c-3.1,8.9-4.5,19.3-4.5,33.9l0,87.8c0,24.1-10.7,34.8-34.8,34.8h-58.1V331h30.1c6.1,0,8.8-2.7,8.8-8.8l-0.8-125.6
		c0-24.6-7-34.1-25-34.1c-7.9,0-13.4,0.5-13.5,0.5l-2.6,0.2l0.6-45.2l2.1-0.2c0.1,0,10.4-1,22-1c37.9,0,60,16,67.4,49
		c10.3-18.6,38-55.7,96.3-55.7c61,0,90.7,33,90.7,100.8v111.2c0,6.1,2.7,8.8,8.8,8.8h30.1V377.8z"/>
</g>
<g>
	<path class="st0" d="M199,383.2c-85.5,0-128.9-46.5-128.9-138.2V71.1c0-6.1-2.7-8.9-8.9-8.9h-44V14h79.1
		c24.1,0,34.8,10.7,34.8,34.9l-0.2,74.2V233c0,81.5,33.4,95,69.5,95c46.9,0,86.5-27.5,108.7-75.3c3.1-7.9,5.4-15.5,6.5-21.4
		c1.9-10.5,2.3-45.7,2.3-56.3l0.3-99.2c1.2-43.2,37-62.9,70.3-62.9c11.6,0,44.8,1,45.1,1l2.2,0.1l0.6,48.2l-2.4,0
		c-0.2,0-24.1-0.5-32.1-0.5c-18,0-25,9.6-25,34.2l0.8,201.6c0,24.6,7,34.2,25,34.2c8,0,31.8-0.5,32.1-0.5l2.4,0l-0.6,47l-2.2,0.1
		c-0.3,0-31.1,1-42.6,1c-58.7,0-70.7-33.4-74.5-58.4l-0.1-0.7C288.7,359.7,245,383.2,199,383.2z"/>
</g>
</svg>
