<?xml version="1.0" encoding="UTF-8"?>
<!-- Generator: Adobe Illustrator 21.0.2, SVG Export Plug-In . SVG Version: 6.00 Build 0)  -->
<svg version="1.1" id="Layer_1" xmlns="http://www.w3.org/2000/svg" xmlns:xlink="http://www.w3.org/1999/xlink" x="0px" y="0px" viewBox="0 0 595.3 368.5" style="enable-background:new 0 0 595.3 368.5;" xml:space="preserve">
<style type="text/css">
	.st0{fill-rule:evenodd;clip-rule:evenodd;fill:#F6861F;}
</style>
<g>
	<g>
		<path class="st0" d="M158.3,137.3l-26.5,75l-26.2-75H78.2l41.2,109.6h23.4l42-109.6H158.3z"/>
		<path class="st0" d="M210.5,137.4V247h24.5V137.4H210.5z"/>
		<path class="st0" d="M266.5,137.4l0,22.4h46.1L265.3,230v16.9h77.9v-22.2h-47.4l46.4-69.7v-17.6H266.5z"/>
		<path class="st0" d="M398.7,137.4c-7.1,0-12.6,1.1-18.2,6.7c-5.3,5.3-8,11.8-8,19.4v83.3h24.4v-79.6c0-2.1,0.7-3.8,2.2-5.3    c1.2-1.2,4.1-2.2,6.6-2.2h20.4v-22.4H398.7z"/>
		<path class="st0" d="M450,104.1V220c0,7.4,2.6,13.8,7.9,19.1c5.5,5.5,10.8,7.8,17.8,7.8h26.9v-22.1h-20.1c-2,0-3.7-0.7-5.1-2.1    c-1.4-1.5-2.1-3.1-2.1-5.1v-57.7h27.3v-22.3h-27.3v-33.3H450z"/>
	</g>
	<g>
		<g>
			<path class="st0" d="M14.2,184.1c0,65,21.9,125,58.9,172.9l8.8-25.9c-26-38-42.2-83.2-44.9-132L14.2,184.1z"/>
		</g>
		<g>
			<path class="st0" d="M581.1,184.3c0.1-65-21.9-125-58.9-172.9l-8.8,25.8c26,38,42.2,83.3,44.9,132L581.1,184.3z"/>
		</g>
	</g>
</g>
</svg>