<svg width="446" height="114" viewBox="0 0 446 114" fill="none" xmlns="http://www.w3.org/2000/svg">
<path d="M112.066 0.758087H0.38147V26.1804H112.066V0.758087Z" fill="#1BE066"/>
<path d="M112.066 44.2436H0.38147V69.6659H112.066V44.2436Z" fill="#1BE066"/>
<path d="M112.066 87.729H0.38147V113.151H112.066V87.729Z" fill="#1BE066"/>
<path d="M183.199 71.6729H164.585V112.482H141.317V0.758087H182.534C195.83 0.758087 205.802 3.43412 213.114 9.45519C220.427 15.4763 223.751 23.5043 223.751 34.2085C223.751 41.5676 222.421 48.2576 219.097 53.6097C215.773 58.9618 211.12 62.9758 203.807 65.6518L227.74 111.813V113.151H203.142L183.199 71.6729ZM164.585 52.9407H183.199C189.182 52.9407 193.171 51.6027 196.495 48.2576C199.818 45.5816 201.148 40.8985 201.148 36.2155C201.148 30.8634 199.818 26.8494 196.495 23.5043C193.835 20.1593 189.182 18.8213 182.534 18.8213H163.92V52.9407H164.585Z" fill="#0A6252"/>
<path d="M319.481 64.3138H275.604V94.4192H327.458V113.151H252.337V0.758087H326.793V19.4903H274.94V46.2506H319.481V64.3138Z" fill="#0A6252"/>
<path d="M445.792 113.151H422.525L377.983 39.5605V113.151H354.716V0.758087H377.983L422.525 75.0179V0.758087H445.792V113.151Z" fill="#0A6252"/>
</svg>
