<svg id="logoNorskSvart" data-name="Layer 1" xmlns="http://www.w3.org/2000/svg" viewBox="0 0 163.16258 197.32821"><title>Startsiden til Skatteetaten</title><rect width="163.16258" height="163.16258" fill="#030405"></rect><path d="M44.20218,87.40431c0,15.2844,22.71564,27.67446,50.73241,27.67446,28.02025,0,50.74625-12.39006,50.74625-27.67446,0-10.55038-10.81662-19.72445-26.74767-24.38929L94.9761,87.40431V73.51353L118.93317,49.3697a86.706,86.706,0,0,0-24.08848-3.27816l.00694,13.64526C66.8729,59.76106,44.20218,72.13722,44.20218,87.40431Z" transform="translate(-15.39552 -2)" fill="#fff"></path><path d="M25.04008,199.32821a13.32907,13.32907,0,0,1-3.95364-.53639,8.53287,8.53287,0,0,1-2.91013-1.50577,6.72141,6.72141,0,0,1-1.83931-2.33182,7.51536,7.51536,0,0,1-.71-3.01155h4.02581q.43447,4.17064,5.41553,4.17014a7.01518,7.01518,0,0,0,1.65109-.18822,4.2831,4.2831,0,0,0,1.37607-.57929,2.70392,2.70392,0,0,0,1.259-2.38935,2.45583,2.45583,0,0,0-.39108-1.43264,3.11382,3.11382,0,0,0-1.1147-.95573,8.08368,8.08368,0,0,0-1.75154-.66609q-1.0284-.275-2.30256-.56565-1.50675-.3467-2.85259-.75288a8.22968,8.22968,0,0,1-2.34644-1.10008,5.22341,5.22341,0,0,1-1.59257-1.75251,5.417,5.417,0,0,1-.59392-2.679,5.734,5.734,0,0,1,.59392-2.678,5.35724,5.35724,0,0,1,1.66572-1.91149,7.733,7.733,0,0,1,2.51906-1.15859,12.21752,12.21752,0,0,1,3.18612-.39107,9.15787,9.15787,0,0,1,5.8934,1.694,6.64381,6.64381,0,0,1,2.41764,4.67727H28.77527a3.52336,3.52336,0,0,0-1.38972-2.44689,5.05329,5.05329,0,0,0-3.07007-.85431,5.25673,5.25673,0,0,0-2.91013.709,2.268,2.268,0,0,0-1.08643,2.01289,1.99179,1.99179,0,0,0,.37645,1.2454,2.977,2.977,0,0,0,1.08642.83968,9.12538,9.12538,0,0,0,1.70863.60855q.99914.26039,2.244.52078,1.50675.31892,2.88184.7529a9.11493,9.11493,0,0,1,2.44689,1.17321,5.48387,5.48387,0,0,1,1.70961,1.89685,5.95906,5.95906,0,0,1,.63683,2.89648,6.21385,6.21385,0,0,1-.63683,2.86722,6.00593,6.00593,0,0,1-1.75252,2.08508,8.15288,8.15288,0,0,1-2.64974,1.2883A11.82229,11.82229,0,0,1,25.04008,199.32821Z" transform="translate(-15.39552 -2)"></path><path d="M39.98376,191.42191l-1.82469,1.82369v5.59011H34.50971V177.28866h3.64936V185.629q0,1.10154-.04291,2.11432-.04387,1.01378-.07314,1.68035l5.82124-6.05333h4.373l-5.67592,5.64763,6.342,9.81779H44.61714Z" transform="translate(-15.39552 -2)"></path><path d="M59.24192,198.83571a2.10371,2.10371,0,0,1-.33256-.73826,6.85765,6.85765,0,0,1-.18823-1.26h-.05851a6.48163,6.48163,0,0,1-1.88222,1.694,5.73787,5.73787,0,0,1-2.98328.68072,7.30921,7.30921,0,0,1-2.0997-.28965,4.63581,4.63581,0,0,1-1.66474-.86894A4.162,4.162,0,0,1,48.93163,196.62a4.58059,4.58059,0,0,1-.40473-1.98365,4.37969,4.37969,0,0,1,.47787-2.15821,3.74173,3.74173,0,0,1,1.31756-1.37509,6.73457,6.73457,0,0,1,1.99827-.79678,23.93683,23.93683,0,0,1,2.54832-.44861,10.71757,10.71757,0,0,0,2.86722-.65146,1.48117,1.48117,0,0,0,.95574-1.46288,2.04868,2.04868,0,0,0-.69535-1.62182,3.08892,3.08892,0,0,0-2.08508-.60758,3.47594,3.47594,0,0,0-2.33083.66609,2.46324,2.46324,0,0,0-.826,1.82371h-3.4748a4.82648,4.82648,0,0,1,.44861-1.89686,4.61891,4.61891,0,0,1,1.24539-1.60719,6.34612,6.34612,0,0,1,2.04216-1.11471,8.79481,8.79481,0,0,1,2.86625-.42034,12.34286,12.34286,0,0,1,2.36107.20286,5.005,5.005,0,0,1,1.78079.69535,4.74387,4.74387,0,0,1,2.20113,4.40225v8.13744a5.30742,5.30742,0,0,0,.159,1.4775,1.24194,1.24194,0,0,0,.42033.69437v.26137Zm-4.373-2.14359a4.308,4.308,0,0,0,1.67937-.30427,3.88334,3.88334,0,0,0,1.2171-.78118,3.32964,3.32964,0,0,0,1.01328-2.38935V190.9294a5.609,5.609,0,0,1-1.36144.59392q-.81044.24577-1.65011.41936a9.15771,9.15771,0,0,0-2.63609.82506,1.85708,1.85708,0,0,0-.92648,1.78177,2.21249,2.21249,0,0,0,.21748,1.0279,1.762,1.762,0,0,0,.57929.6661,2.33413,2.33413,0,0,0,.85432.34718A4.95981,4.95981,0,0,0,54.86892,196.69212Z" transform="translate(-15.39552 -2)"></path><path d="M63.23847,183.37029h2.37472v-4.923H69.2333v4.923h3.09933v2.52H69.2333v8.6592a1.30807,1.30807,0,0,0,.435,1.144,2.0951,2.0951,0,0,0,1.21612.30428c.19311,0,.39986-.00975.62221-.02926a3.648,3.648,0,0,0,.56467-.08679h.17457v2.86722q-.46372.08631-1.0718.159a11.7032,11.7032,0,0,1-1.36144.07217,7.278,7.278,0,0,1-1.70863-.18822,3.512,3.512,0,0,1-1.33218-.60757,2.7688,2.7688,0,0,1-.85432-1.11568,4.25768,4.25768,0,0,1-.30427-1.70864v-9.46962H63.23847Z" transform="translate(-15.39552 -2)"></path><path d="M72.82415,183.37029h2.37472v-4.923H78.819v4.923h3.09933v2.52H78.819v8.6592a1.30807,1.30807,0,0,0,.435,1.144,2.09514,2.09514,0,0,0,1.21613.30428c.1931,0,.39985-.00975.6222-.02926a3.648,3.648,0,0,0,.56467-.08679h.17457v2.86722q-.46372.08631-1.0718.159a11.7032,11.7032,0,0,1-1.36144.07217,7.27781,7.27781,0,0,1-1.70862-.18822,3.512,3.512,0,0,1-1.33219-.60757,2.76869,2.76869,0,0,1-.85431-1.11568,4.25768,4.25768,0,0,1-.30428-1.70864v-9.46962H72.82415Z" transform="translate(-15.39552 -2)"></path><path d="M90.43219,199.299a8.23133,8.23133,0,0,1-3.31583-.63684,7.2582,7.2582,0,0,1-2.47615-1.73789,7.51435,7.51435,0,0,1-1.54966-2.59219,9.37375,9.37375,0,0,1-.53541-3.19977,9.23577,9.23577,0,0,1,.55-3.22905,7.71477,7.71477,0,0,1,1.56331-2.59219,7.20843,7.20843,0,0,1,2.43324-1.72327,8.27188,8.27188,0,0,1,6.15379-.05851,6.83629,6.83629,0,0,1,2.30256,1.60818,7.6622,7.6622,0,0,1,1.67937,2.96767,12.5322,12.5322,0,0,1,.52176,3.92439H86.20353a5.70414,5.70414,0,0,0,1.26,3.229,3.73378,3.73378,0,0,0,2.99791,1.23076,4.05131,4.05131,0,0,0,2.1865-.53541,3.02772,3.02772,0,0,0,1.23075-1.49116h3.59086a6.58241,6.58241,0,0,1-.88357,1.92514,6.06869,6.06869,0,0,1-1.49115,1.535,7.02864,7.02864,0,0,1-2.07045,1.01426A8.77881,8.77881,0,0,1,90.43219,199.299Zm-.20285-13.67a3.43763,3.43763,0,0,0-2.78042,1.13031,5.53818,5.53818,0,0,0-1.18687,2.954H93.9655a4.802,4.802,0,0,0-1.08642-2.9979A3.374,3.374,0,0,0,90.22934,185.629Z" transform="translate(-15.39552 -2)"></path><path d="M106.85288,199.299a8.23134,8.23134,0,0,1-3.31584-.63684,7.25826,7.25826,0,0,1-2.47614-1.73789,7.51438,7.51438,0,0,1-1.54967-2.59219,9.37375,9.37375,0,0,1-.5354-3.19977,9.23577,9.23577,0,0,1,.55-3.22905,7.71479,7.71479,0,0,1,1.56332-2.59219,7.20823,7.20823,0,0,1,2.43324-1.72327,8.27188,8.27188,0,0,1,6.15379-.05851,6.83635,6.83635,0,0,1,2.30255,1.60818,7.66235,7.66235,0,0,1,1.67938,2.96767,12.53191,12.53191,0,0,1,.52175,3.92439H102.62421a5.70414,5.70414,0,0,0,1.26,3.229,3.73376,3.73376,0,0,0,2.9979,1.23076,4.05131,4.05131,0,0,0,2.1865-.53541,3.02768,3.02768,0,0,0,1.23076-1.49116h3.59085a6.58241,6.58241,0,0,1-.88357,1.92514,6.06852,6.06852,0,0,1-1.49115,1.535,7.02852,7.02852,0,0,1-2.07045,1.01426A8.77879,8.77879,0,0,1,106.85288,199.299Zm-.20286-13.67a3.43763,3.43763,0,0,0-2.78042,1.13031,5.53826,5.53826,0,0,0-1.18687,2.954h7.70345a4.802,4.802,0,0,0-1.08641-2.9979A3.374,3.374,0,0,0,106.65,185.629Z" transform="translate(-15.39552 -2)"></path><path d="M114.38274,183.37029h2.37472v-4.923h3.62011v4.923h3.09933v2.52h-3.09933v8.6592a1.30807,1.30807,0,0,0,.435,1.144,2.09512,2.09512,0,0,0,1.21613.30428c.19309,0,.39985-.00975.62221-.02926a3.64807,3.64807,0,0,0,.56466-.08679h.17457v2.86722q-.46372.08631-1.07179.159a11.70345,11.70345,0,0,1-1.36144.07217,7.27783,7.27783,0,0,1-1.70863-.18822,3.512,3.512,0,0,1-1.33219-.60757,2.76869,2.76869,0,0,1-.85431-1.11568,4.25768,4.25768,0,0,1-.30428-1.70864v-9.46962h-2.37472Z" transform="translate(-15.39552 -2)"></path><path d="M134.91555,198.83571a2.10389,2.10389,0,0,1-.33257-.73826,6.85863,6.85863,0,0,1-.18822-1.26h-.05851a6.48188,6.48188,0,0,1-1.88222,1.694,5.7379,5.7379,0,0,1-2.98328.68072,7.30911,7.30911,0,0,1-2.0997-.28965,4.63581,4.63581,0,0,1-1.66474-.86894,4.16187,4.16187,0,0,1-1.10105-1.43362,4.58059,4.58059,0,0,1-.40473-1.98365,4.37969,4.37969,0,0,1,.47787-2.15821A3.74178,3.74178,0,0,1,125.996,191.103a6.73464,6.73464,0,0,1,1.99828-.79678,23.93707,23.93707,0,0,1,2.54831-.44861,10.71737,10.71737,0,0,0,2.86722-.65146,1.48115,1.48115,0,0,0,.95574-1.46288,2.04867,2.04867,0,0,0-.69534-1.62182,3.089,3.089,0,0,0-2.08508-.60758,3.4759,3.4759,0,0,0-2.33083.66609,2.46316,2.46316,0,0,0-.826,1.82371h-3.47481a4.82649,4.82649,0,0,1,.44862-1.89686,4.61891,4.61891,0,0,1,1.24539-1.60719,6.34612,6.34612,0,0,1,2.04216-1.11471,8.79479,8.79479,0,0,1,2.86624-.42034,12.34286,12.34286,0,0,1,2.36107.20286,5.00493,5.00493,0,0,1,1.7808.69535,4.74387,4.74387,0,0,1,2.20113,4.40225v8.13744a5.30742,5.30742,0,0,0,.159,1.4775,1.242,1.242,0,0,0,.42032.69437v.26137Zm-4.373-2.14359a4.308,4.308,0,0,0,1.67938-.30427,3.88357,3.88357,0,0,0,1.2171-.78118,3.32964,3.32964,0,0,0,1.01328-2.38935V190.9294a5.60919,5.60919,0,0,1-1.36144.59392q-.81044.24577-1.65012.41936a9.15752,9.15752,0,0,0-2.63608.82506,1.85708,1.85708,0,0,0-.92648,1.78177,2.21236,2.21236,0,0,0,.21748,1.0279,1.762,1.762,0,0,0,.57929.6661,2.33405,2.33405,0,0,0,.85432.34718A4.95978,4.95978,0,0,0,130.54254,196.69212Z" transform="translate(-15.39552 -2)"></path><path d="M138.246,183.37029h2.37473v-4.923h3.62011v4.923h3.09932v2.52h-3.09932v8.6592a1.30807,1.30807,0,0,0,.435,1.144,2.09514,2.09514,0,0,0,1.21613.30428c.19309,0,.39985-.00975.6222-.02926a3.64783,3.64783,0,0,0,.56467-.08679h.17458v2.86722q-.46374.08631-1.0718.159a11.70345,11.70345,0,0,1-1.36144.07217,7.2781,7.2781,0,0,1-1.70864-.18822,3.512,3.512,0,0,1-1.33217-.60757,2.7688,2.7688,0,0,1-.85432-1.11568,4.25786,4.25786,0,0,1-.30427-1.70864v-9.46962H138.246Z" transform="translate(-15.39552 -2)"></path><path d="M155.76725,199.299a8.2313,8.2313,0,0,1-3.31583-.63684,7.2582,7.2582,0,0,1-2.47615-1.73789,7.51469,7.51469,0,0,1-1.54967-2.59219,9.374,9.374,0,0,1-.53541-3.19977,9.23577,9.23577,0,0,1,.55-3.22905,7.71447,7.71447,0,0,1,1.56332-2.59219,7.20849,7.20849,0,0,1,2.43323-1.72327,8.27191,8.27191,0,0,1,6.1538-.05851,6.83631,6.83631,0,0,1,2.30254,1.60818,7.66222,7.66222,0,0,1,1.67938,2.96767,12.53162,12.53162,0,0,1,.52175,3.92439H151.53859a5.70407,5.70407,0,0,0,1.26,3.229,3.73375,3.73375,0,0,0,2.99789,1.23076,4.05135,4.05135,0,0,0,2.18651-.53541,3.02774,3.02774,0,0,0,1.23076-1.49116h3.59085a6.58241,6.58241,0,0,1-.88357,1.92514,6.06839,6.06839,0,0,1-1.49116,1.535,7.02859,7.02859,0,0,1-2.07044,1.01426A8.77881,8.77881,0,0,1,155.76725,199.299Zm-.20285-13.67a3.43765,3.43765,0,0,0-2.78042,1.13031,5.5381,5.5381,0,0,0-1.18687,2.954h7.70345a4.802,4.802,0,0,0-1.08643-2.9979A3.374,3.374,0,0,0,155.5644,185.629Z" transform="translate(-15.39552 -2)"></path><path d="M168.10409,185.629h.08681a5.21183,5.21183,0,0,1,1.95438-1.98365,5.70093,5.70093,0,0,1,2.8526-.68073,5.242,5.242,0,0,1,3.92438,1.43362,5.40681,5.40681,0,0,1,1.40436,3.95364v10.48388H174.649v-9.8763a2.97122,2.97122,0,0,0-.76751-2.17187,2.92856,2.92856,0,0,0-2.1865-.78216,3.54143,3.54143,0,0,0-1.419.276,3.18669,3.18669,0,0,0-1.101.78117,3.6863,3.6863,0,0,0-.72363,1.20247,4.25863,4.25863,0,0,0-.26038,1.50578v9.0649h-3.67862V183.37029h3.59181Z" transform="translate(-15.39552 -2)"></path></svg>