<svg width="201" height="106" viewBox="0 0 201 106" fill="none" xmlns="http://www.w3.org/2000/svg"><g clip-path="url(#clip0_457_7643)"><path d="M70.7208 10.4113C65.6078 13.6301 61.2267 17.6392 57.6455 22.1831" stroke="#0c081a" stroke-width="4.85" stroke-miterlimit="10" stroke-linecap="round"></path><path d="M173.294 44.1199C174.268 41.9535 176.347 40.9249 182.454 38.5064C186.362 36.9566 193.256 34.9878 196.299 35.1036C200.466 35.2331 201.276 39.5896 199.853 43.3058C196.306 41.6606 184.902 40.8431 178.24 42.8732" fill="#0c081a"></path><path d="M28.8637 64.4994C32.4006 53.2452 34.678 42.4339 34.1708 36.6774C36.1928 35.7918 40.9961 34.5281 42.8922 36.0438C44.4104 37.2462 44.9789 38.888 44.6623 41.6096C46.5584 36.7421 48.9583 34.5281 53.3837 34.5281C57.5538 34.5281 59.324 38.5747 59.324 43.1901C59.324 49.1952 56.7981 56.7196 51.5523 61.335C47.8248 64.496 42.6437 65.0648 38.9774 64.8127C37.9017 69.0501 37.3332 73.0319 37.0813 79.7967C27.2876 80.9344 23.2435 77.2045 28.8671 64.496L28.8637 64.4994ZM39.6072 62.5408C41.5033 61.972 43.1475 60.5175 44.5364 57.8606C46.7491 53.4973 48.1379 47.7442 48.6452 42.7507C48.8358 40.9794 48.7098 39.7157 47.886 39.7157C46.7491 39.7157 45.1049 44.4572 44.0938 47.7442C42.7049 52.1076 41.0607 57.3565 39.6072 62.5408Z" fill="#0c081a"></path><path d="M56.8559 64.4994C60.3928 53.2452 62.6702 42.4339 62.163 36.6774C64.185 35.7918 68.9883 34.5281 70.8844 36.0438C72.3379 37.2462 72.8451 38.9527 72.4639 41.8616C74.2953 37.689 76.6986 35.7918 80.7427 35.7918C84.7869 35.7918 87.2515 38.9527 87.2515 44.6445C87.2515 50.3363 84.5962 56.849 79.6704 61.3997C75.6263 65.1295 70.5065 66.3319 66.8436 65.4463C65.8326 69.4929 65.2641 73.4134 65.0735 79.8001C55.2798 80.9377 51.2357 77.2079 56.8593 64.4994H56.8559ZM67.5347 62.7928C69.8087 62.5408 71.0716 60.7082 72.5252 57.8606C74.6119 53.8141 76.1267 48.6911 76.5693 44.2051C76.7599 42.4339 76.6339 41.1702 75.8101 41.1702C74.4213 41.1702 72.7771 45.026 71.9567 47.7442C70.5678 52.1688 68.9883 57.5439 67.5347 62.7928Z" fill="#0c081a"></path><path d="M101.276 60.1359C98.6209 65.0034 95.3359 65.2589 93.1267 65.2589C88.9566 65.2589 86.6826 62.0332 86.6826 56.7876C86.6826 47.8735 92.3709 34.7834 101.722 34.7834C103.618 34.7834 105.133 35.7951 105.831 38.3259C106.147 36.6807 106.273 35.1649 106.273 33.7718C110.821 33.329 116.067 33.5197 116.7 38.0091C117.078 40.792 115.815 44.1437 114.11 47.8088C112.908 51.7907 111.897 55.1424 111.897 57.6732C111.897 58.8756 112.214 59.0016 112.656 59.0016C113.858 59.0016 116.384 56.7263 119.039 50.9085C120.05 51.3513 121.378 51.8554 120.554 53.6266C117.711 60.2653 112.214 64.9455 106.464 64.9455C103.557 64.9455 101.6 63.3003 101.283 60.1393L101.276 60.1359ZM103.805 46.7324C104.122 45.5948 104.439 44.4571 104.752 43.2547C104.816 40.9794 104.5 39.5862 103.489 39.5862C101.089 39.5862 97.9299 51.7907 97.4227 57.227C97.2967 59.3763 97.4227 60.2619 98.0558 60.2619C99.5741 60.2619 102.291 52.5469 103.805 46.7324Z" fill="#0c081a"></path><path d="M122.126 59.5058C122.126 54.9551 125.537 46.8619 126.93 43.5715C126.109 43.7623 125.285 43.8883 124.591 43.8883C123.202 47.5568 122.126 50.4657 120.673 53.3746C119.978 54.703 118.525 54.451 117.766 53.5007C119.471 49.9582 120.673 47.24 122.126 43.4489C120.23 42.5633 119.219 40.6047 119.219 38.0739C119.219 33.9626 120.608 30.1715 123.58 28.9691C125.667 28.0835 127.876 28.717 129.394 30.7403C128.952 31.6872 127.311 34.6609 126.804 38.0739C126.613 39.4636 126.487 40.54 127.311 40.54C128.574 40.54 132.049 36.0506 137.23 36.0506C138.432 36.0506 140.012 36.6194 140.328 37.9479C139.317 40.1619 133.442 53.6267 133.442 58.3715C133.442 59.5739 133.758 60.0167 134.388 60.0167C135.906 60.0167 139.001 56.3482 141.53 50.9119C143.235 51.6068 143.678 52.5571 142.541 54.6417C140.015 59.5739 135.273 65.5178 128.261 65.5178C123.774 65.5178 122.133 62.987 122.133 59.5092L122.126 59.5058Z" fill="#0c081a"></path><path d="M153.972 60.1359C151.255 65.0034 147.841 65.2589 145.632 65.2589C141.397 65.2589 139.123 62.0332 139.123 56.7876C139.123 48.3777 144.556 36.6807 153.529 35.2263C156.627 34.7221 158.333 35.417 159.721 36.8067C161.366 32.1913 167.619 34.4667 170.526 37.5663C169.199 39.7804 166.986 46.2931 165.471 51.5386C164.838 53.814 164.334 56.0927 164.334 57.7992C164.334 58.6849 164.651 59.3797 165.723 59.5705C166.417 59.6318 167.367 59.5705 168.691 59.1924C167.997 63.3037 164.773 65.579 160.225 65.579C155.991 65.579 154.224 63.1777 153.968 60.1427L153.972 60.1359ZM155.361 51.3479C156.181 48.8171 157.448 44.8352 158.585 40.6626C158.207 39.3989 157.573 38.7653 156.627 38.7653C153.72 38.7653 150.37 52.1688 149.867 57.227C149.741 59.3763 149.867 60.2619 150.5 60.2619C152.018 60.2619 154.166 54.8869 155.364 51.3479H155.361Z" fill="#0c081a"></path><path d="M187.86 51.2457C184.636 57.8845 182.298 59.9725 180.592 59.9725C179.516 59.9725 179.139 59.0868 179.139 57.3803C179.139 53.2418 181.954 43.9053 183.901 38.3157L184.977 34.7665C186.172 32.2867 186.604 29.1973 186.604 27.6815C186.604 21.9898 182.182 21.2336 175.483 23.6997C175.86 26.4655 175.728 29.2484 174.907 32.9884C173.832 37.161 170.608 48.5923 169.028 53.7152C167.575 58.5827 167.639 65.6029 175.22 65.6029C181.348 65.6029 185.583 61.6211 189.249 54.2228C189.943 52.6423 189.188 51.8214 187.86 51.2526V51.2457Z" fill="#0c081a"></path><path d="M15.6076 59.9044C12.8434 64.857 9.37119 65.1159 7.12105 65.1159C2.81482 65.1159 0.5 61.8357 0.5 56.4947C0.5 47.9383 6.02832 36.0404 15.1582 34.5587C18.3105 34.0444 20.0432 34.7529 21.4593 36.1664C23.1307 31.4693 29.4965 33.7855 32.4513 36.9397C31.0998 39.1912 28.8497 45.8163 27.3076 51.1538C26.6642 53.47 26.1502 55.7862 26.1502 57.5234C26.1502 58.4261 26.4702 59.1311 27.5629 59.3253C28.271 59.39 29.2343 59.3253 30.5858 58.9404C29.8777 63.1232 26.5995 65.4361 21.9699 65.4361C17.6637 65.4361 15.8629 62.9904 15.6042 59.9044H15.6076ZM17.0203 50.963C17.8577 48.3914 19.1411 44.338 20.2985 40.0904C19.9138 38.8029 19.2704 38.1625 18.3071 38.1625C15.3489 38.1625 11.9413 51.7976 11.4273 56.9444C11.2979 59.1312 11.4273 60.0304 12.0707 60.0304C13.6127 60.0304 15.7982 54.5634 17.0203 50.9596V50.963Z" fill="#0c081a"></path><path d="M61.3115 76.3973C74.2336 72.8173 99.826 64.4721 114.838 67.8204C124.196 69.9527 122.841 80.7743 121.03 84.3338C105.542 79.7388 92.7692 79.1631 78.2675 79.4901C74.9859 79.6468 71.6839 79.6264 68.2389 79.7558L63.0476 79.9704" fill="#0c081a"></path><path d="M140.774 24.2027C135.879 17.3255 129.244 11.5418 121.115 7.59399C110.947 2.65839 99.9653 1.33337 89.6201 3.11482" stroke="#0c081a" stroke-width="2.42" stroke-miterlimit="10" stroke-linecap="round"></path><path d="M91.9893 97.2306C105.129 99.0733 118.439 95.1187 128.434 86.5793" stroke="#0c081a" stroke-width="3" stroke-miterlimit="10" stroke-linecap="round"></path><path d="M60.9033 87.6828C65.0428 91.9848 69.9992 95.6431 75.6807 98.4022C97.777 109.128 123.72 102.8 138.63 84.5865" stroke="#0c081a" stroke-width="2" stroke-miterlimit="10" stroke-linecap="round"></path></g><defs><clipPath id="clip0_457_7643"><rect width="200" height="105" fill="white" transform="translate(0.5 0.5)"></rect></clipPath></defs></svg>