<?xml version="1.0" encoding="UTF-8" standalone="no"?>
<svg
   version="1.1"
   id="Layer_1"
   x="0px"
   y="0px"
   viewBox="0 0 1827.7174 685.56524"
   xml:space="preserve"
   width="1827.7174"
   height="685.56525"
   xmlns="http://www.w3.org/2000/svg"
   xmlns:svg="http://www.w3.org/2000/svg"><defs
   id="defs8" />
<style
   type="text/css"
   id="style1">
	.st0{fill:#124442;}
	.st1{fill:#76E691;}
	.st2{fill:#55B077;}
	.st3{fill:#337A5C;}
</style>
<g
   id="g5"
   transform="translate(-246.28259,-246.33773)">
	<path
   class="st0"
   d="m 1097.8,460.29 c 37.93,0 68.74,13.54 92.47,40.69 23.76,27.11 33.46,59.95 29.14,98.51 h -195.59 c 3.38,19.09 12.14,34.58 26.35,46.45 14.17,11.9 31.3,17.83 51.33,17.83 15.42,0 29.21,-3.8 41.39,-11.34 12.18,-7.54 21.67,-17.8 28.44,-30.74 l 40.69,18.01 c -10.47,20.06 -25.44,36.08 -44.84,48.12 -19.44,12 -41.8,18.04 -67.07,18.04 -35.45,0 -65.18,-11.72 -89.23,-35.17 -24.08,-23.41 -36.08,-52.55 -36.08,-87.38 0,-34.86 11.79,-64.07 35.38,-87.66 23.55,-23.57 52.76,-35.36 87.62,-35.36 z m 0,42.08 c -17.9,0 -33.39,5.48 -46.48,16.4 -13.12,10.96 -21.81,25.19 -26.14,42.78 h 145.2 c -3.98,-17.59 -12.56,-31.82 -25.65,-42.78 -13.11,-10.92 -28.75,-16.4 -46.93,-16.4 z"
   id="path1" />
	<path
   class="st0"
   d="m 1345.66,686.41 72.62,-221.52 h 49.48 l -82.77,236.31 h -82.32 L 1219.9,464.89 h 52.69 z"
   id="path2" />
	<path
   class="st0"
   d="m 1492.96,418.2 c -6,-5.86 -9,-12.95 -9,-21.29 0,-8.31 3,-15.42 9,-21.29 6,-5.83 13.19,-8.76 21.5,-8.76 8.34,0 15.42,2.93 21.29,8.76 5.86,5.86 8.79,12.98 8.79,21.29 0,8.34 -2.93,15.42 -8.79,21.29 -5.86,5.87 -12.95,8.76 -21.29,8.76 -8.31,0 -15.5,-2.9 -21.5,-8.76 z m 45.53,283 h -48.54 V 464.89 h 48.54 z"
   id="path3" />
	<path
   class="st0"
   d="m 1721.59,460.29 c 26.83,0 48.71,9.39 65.67,28.2 16.96,18.81 25.44,42.71 25.44,71.68 V 701.2 h -48.54 V 567.55 c 0,-18.18 -5.86,-33.22 -17.59,-45.08 -11.72,-11.86 -26.21,-17.8 -43.48,-17.8 -19.4,0 -35.28,5.93 -47.63,17.8 -12.32,11.86 -18.49,26.9 -18.49,45.08 V 701.2 h -48.54 V 464.89 h 48.54 v 61.03 c 6.49,-20.34 17.2,-36.36 32.14,-48.09 14.97,-11.68 32.45,-17.54 52.48,-17.54 z"
   id="path4" />
	<path
   class="st0"
   d="m 1949.6,687.8 74.92,-222.91 H 2074 l -111,328.78 h -49.48 L 1945,701.2 h -38.38 l -80.47,-236.31 h 52.69 z"
   id="path5" />
</g>
<g
   id="g8"
   transform="translate(-246.28259,-246.33773)">
	<path
   class="st1"
   d="m 793.59,716.34 c 19.4,-39.18 27.88,-83.78 23.03,-127.26 C 802.09,466.05 700.3,359.06 579.83,334.3 c -26.4,-5.38 -53.74,-6.37 -80.64,-5.76 -90.69,1.85 -184.38,40.34 -212.65,133.6 -56.32,185.05 164.02,490.65 367.5,401.7 63.79,-28.38 109.22,-86.12 139.55,-147.5 z m 6.37,3.23 C 764.84,786.07 720.86,856.29 652.63,892.99 587.26,928.6 511.12,919.68 447.85,883.94 340.71,824.52 259.43,692.34 247.6,571.15 c -9.97,-107.26 36.74,-196.9 137.02,-240.29 35.61,-15.43 73.73,-24.56 111.98,-30.44 42.89,-6.55 86.65,-9.99 129.58,-0.87 97.2,18.78 179.75,97.36 203.54,193.11 20.01,75.78 6,158.55 -29.76,226.91 z"
   id="path6" />
	<path
   class="st2"
   d="m 593.57,823.07 c 54.09,-7.07 104.77,-33.81 141.33,-74.09 46.45,-51.53 73.26,-118.33 83.94,-186.25 10.66,-71.58 2.83,-150.44 -41.6,-209.91 -31.96,-42.5 -78.84,-68.92 -130.45,-79.97 -49.17,-9.79 -100.55,-1.03 -146.33,18.39 -85.24,36.52 -162.09,107.63 -185.45,199.11 -20.63,77.6 -2.28,161.82 44.97,226.43 53.61,75.24 140.51,119.61 233.59,106.29 z m 0.9,7.09 C 456.45,847.28 316.43,772.53 276.25,634.89 c -17.4,-57.42 -15.23,-120.48 5.66,-176.68 53,-138.13 208.07,-231.67 354.9,-208.29 107.82,19 195.9,95.29 226.31,201.09 22.77,78.27 10.59,165.75 -31.77,235.28 -50.7,83.58 -141.44,133.09 -236.88,143.87 z"
   id="path7" />
	<path
   class="st3"
   d="m 388.49,805.58 c 61.49,54 139.18,86.51 221.67,81.48 136.81,-6.85 241.45,-123.91 233.06,-261 C 840.83,584.04 828.1,542.53 809.52,504.85 750.14,378.27 597.89,307.42 467.05,362.88 435.1,376.36 405.51,395.79 381,420.36 c -62.49,62.27 -89.3,157.27 -73.41,243.69 9.85,54.6 39.04,105.19 80.9,141.53 z m -4.75,5.34 C 304.87,740.1 257.16,628.5 280.19,522.53 c 17.57,-84.54 78.88,-157.25 157.66,-191.81 89.42,-41.05 199.56,-30.36 279.38,26.65 42.32,29.49 76.21,70.27 99.77,115.88 57.93,108.62 77.87,252.72 4.98,359.24 -32.52,47.43 -83.47,82.13 -139.81,94.06 C 569.1,951.73 463.73,883.87 383.74,810.92 Z"
   id="path8" />
</g>
</svg>
