<?xml version="1.0" encoding="utf-8"?>
<!-- Generator: Adobe Illustrator 26.5.0, SVG Export Plug-In . SVG Version: 6.00 Build 0)  -->
<svg version="1.1" id="Layer_1" xmlns="http://www.w3.org/2000/svg" xmlns:xlink="http://www.w3.org/1999/xlink" x="0px" y="0px"
	 viewBox="0 0 702.9302368 238" style="enable-background:new 0 0 702.9302368 238;" xml:space="preserve">
<style type="text/css">
	.st0{fill:#5C7D70;}
	.st1{fill:#4C79AF;}
	.st2{fill:#C25700;}
	.st3{fill:#386097;}
</style>
<path class="st0" d="M214.8844147,12.8143501c-9.7856598-9.7926626-25.6564026-9.8001423-35.4512787-0.0167027
	l-37.9166412,37.8342819c-9.785141,9.797039-9.7754974,25.6714821,0.0215454,35.4566231
	c9.7811432,9.769249,25.6242218,9.7777863,35.4159088,0.0191269l37.9086151-37.8476715
	C224.6335144,38.4684105,224.64328,22.6179771,214.8844147,12.8143501z"/>
<path class="st1" d="M214.8625641,178.9203796l-37.908493-37.8398132
	c-9.7964325-9.7857819-25.6709747-9.7770996-35.4567413,0.0193024c-9.7857819,9.796402-9.7771606,25.6709747,0.0192871,35.4567413
	l0,0l37.9166107,37.834198c4.6874847,4.7111206,11.0647736,7.3513947,17.7106171,7.332428l0,0
	c13.8430328,0.005188,25.0691681-11.2126617,25.0743561-25.0556488
	C222.2206573,190.0097198,219.5741882,183.6244354,214.8625641,178.9203796z"/>
<path class="st2" d="M138.9990997,113.585968L138.9990997,113.585968v-0.0824509
	c0.0039062-6.6218719-2.6286621-12.972847-7.3161469-17.6500931L48.6987801,12.7977753
	c-9.7666092-9.7921524-25.6220989-9.81285-35.4142532-0.0462828C3.4923759,22.5181026,3.471657,38.3735924,13.238246,48.1657448
	c0.008543,0.0085449,0.0170431,0.017086,0.0255852,0.0256271l65.3234024,65.3945923l-65.3258286,65.3893127
	c-9.7751532,9.7857819-9.7665253,25.6430969,0.0192947,35.4182587c9.7857771,9.7751465,25.6430511,9.7664795,35.4182053-0.0193024
	l82.9785461-83.0666046c4.6934357-4.6687927,7.3273315-11.019043,7.3161469-17.6391754
	c0.0048523-0.0271988,0.0067139-0.054863,0.0055695-0.082489H138.9990997z"/>
<path class="st3" d="M299.7399292,183.9914703l11.7503967,31.3343506l11.8020325-31.3343506h6.7891235v37.2884064h-4.7001648
	v-31.0215454h-0.103363l-11.6470032,31.0215454h-4.2295837l-11.6456604-31.0215454h-0.1047363v31.0215454h-4.7001343v-37.2884064
	H299.7399292z"/>
<path class="st3" d="M347.8892822,193.6528931c6.7197571,0,10.079834,2.4198608,10.0803223,7.2596588v15.5638275
	c0,1.0091095,0.4696655,1.5132446,1.4089355,1.5123901c0.4657288-0.0010223,0.927063-0.0895844,1.3600159-0.2611084v3.4489441
	c-0.9822998,0.51297-2.0802612,0.7639771-3.1878357,0.7289581c-2.5065002,0-3.7595215-1.3926392-3.7590332-4.1779022
	c-2.355896,2.7820435-5.8623657,4.3232574-9.5050354,4.1779022c-2.3468018,0.1372833-4.6669922-0.5560608-6.5537415-1.9583893
	c-1.6265564-1.3968048-2.506134-3.4739532-2.3772888-5.6140747c-0.0973511-2.1669006,0.7618713-4.2672424,2.3500977-5.7446289
	c1.5667419-1.4251862,5.2051697-2.5040894,10.9153442-3.2368011c1.3829651-0.0668945,2.7320557-0.4512634,3.942627-1.1233521
	c0.6889038-0.5232544,1.0710754-1.3560028,1.0186462-2.2195129c0.0000305-2.9593506-2.0018921-4.4390411-6.0057678-4.4390411
	c-1.7333984-0.1222229-3.4610291,0.3071899-4.9355164,1.2267303c-1.1634216,0.9542847-1.8271484,2.3878174-1.802063,3.8923035
	h-4.4390564C336.7481995,196.6640167,340.5779419,193.6519623,347.8892822,193.6528931z M340.0556946,214.0202179
	c-0.053894,1.1384888,0.4537659,2.2309875,1.3586426,2.923996c1.137207,0.7652435,2.4958496,1.1325378,3.8637695,1.0444794
	c2.1186829,0.0877228,4.2057495-0.5366974,5.9282227-1.7734375c1.4208069-0.945282,2.2890015-2.5261078,2.3242188-4.2323151
	v-4.6458435c-0.9436951,0.6067352-2.0173035,0.9822693-3.1334229,1.0961609l-4.5437622,0.6772766
	c-1.5795898,0.1251221-3.0958252,0.6759186-4.3873291,1.5939178
	C340.5063171,211.5305634,339.985199,212.7559357,340.0556946,214.0202179z"/>
<path class="st3" d="M377.7630005,193.6528931c6.1961365,0,9.29422,3.2204742,9.29422,9.6614227v17.9655609h-4.4390259V202.84375
	c0.0401001-1.3890686-0.4657288-2.7385254-1.4089661-3.7590332c-1.0963135-1.0704803-2.5976868-1.6217041-4.1262207-1.5150299
	c-2.201416-0.1370239-4.3511658,0.7039642-5.8752136,2.2984009c-1.4244995,1.6677704-2.1615295,3.8146973-2.0617371,6.0057373
	v15.4060516h-4.4390259v-26.9986725h4.177887v4.2812805h0.103363
	C370.7475281,195.3964081,374.1443787,193.4958191,377.7630005,193.6528931z"/>
<path class="st3" d="M407.2178345,193.6528931c3.4637451-0.1578522,6.8097534,1.2757568,9.0847778,3.8923187
	c2.3378296,2.9136963,3.5270691,6.5830688,3.342865,10.314209c0.1750183,3.6941071-1.0246582,7.3220673-3.3674316,10.18367
	c-2.247406,2.5765076-5.5406189,3.9966125-8.9569397,3.8623962c-1.6886292-0.0028076-3.3589478-0.3489227-4.9096069-1.0172882
	c-1.5708008-0.65271-2.9016418-1.7746277-3.8106995-3.2123108h-0.1060791v13.9454193h-4.4390259v-37.3401031h4.4390259v3.6557617
	h0.1060791C400.3455811,194.9010315,403.7441406,193.211319,407.2178345,193.6528931z M398.3397522,207.7533417
	c-0.144165,2.6712036,0.6400452,5.3101196,2.2195129,7.4691162c1.5365601,1.8718567,3.873291,2.8992615,6.2913513,2.7662354
	c2.3218689,0.1177216,4.5549011-0.9059296,5.9812622-2.7417603c1.5375061-2.263031,2.2808228-4.972229,2.1134644-7.7030182
	c0.1182251-2.5947113-0.6864014-5.1474304-2.2712097-7.2052765c-1.4950562-1.838028-3.7688904-2.8640747-6.136322-2.7689514
	c-2.3103638-0.0904388-4.5274048,0.9172363-5.9785461,2.7172699
	C398.969696,202.4399261,398.1844788,205.0816345,398.3397522,207.7533417z"/>
<path class="st3" d="M436.2510376,193.6528931c3.6060486-0.177063,7.1084595,1.2356415,9.58255,3.8651123
	c4.7004089,5.9947815,4.7004089,14.4242249,0,20.4190063c-2.4417725,2.6867523-5.9561157,4.1422119-9.58255,3.9684753
	c-3.5823059,0.1580963-7.0577698-1.2414246-9.5308533-3.8379211c-2.482666-2.8248749-3.7658386-6.5065613-3.5767822-10.2625427
	c-0.1945801-3.7633667,1.0678406-7.4571228,3.525116-10.3142242
	C429.1510925,194.8767242,432.6502991,193.475235,436.2510376,193.6528931z M427.8435364,207.8050232
	c-0.1220398,2.6571808,0.7116394,5.2702484,2.3500977,7.3657532c2.8153687,3.3444061,7.8087463,3.7732239,11.1531677,0.9579468
	c0.3378601-0.2845001,0.6513367-0.5966949,0.9371948-0.9334717c1.6617432-2.0937958,2.5057068-4.7202911,2.3745728-7.3902283
	c0.1192322-2.6634674-0.7139282-5.2823944-2.3500977-7.3874969c-1.4756775-1.8565674-3.7383728-2.9113312-6.1091003-2.8478394
	c-2.3330688-0.0333252-4.5465698,1.0301056-5.9785461,2.8723145c-1.644928,2.0924377-2.4880371,4.7038879-2.3772888,7.3631897
	V207.8050232z"/>
<path class="st3" d="M455.7289429,194.2812042l6.1118164,22.0890808h0.103363l5.4318237-22.0890808h4.8579102l5.6903381,22.0890808
	h0.0543823l6.0574341-22.0890808h4.5939941l-8.562561,26.9470062l-0.0543823,0.0516663h-4.7001648l-5.5351868-21.4634705h-0.0516663
	l-5.4318542,21.4634705h-4.8034973l-8.6686401-26.9986725H455.7289429z"/>
<path class="st3" d="M502.5237427,193.6528931c3.4849854-0.1581879,6.8311768,1.3791199,8.9814148,4.126236
	c2.2770691,3.1300354,3.4187927,6.9428711,3.2367859,10.8092499v0.5222473h-20.2095642v0.3155212
	c-0.1166077,2.2967834,0.692688,4.5444336,2.2467346,6.2396698c1.6360779,1.6053925,3.8720703,2.44841,6.1607666,2.3229523
	c3.3633728,0.3798676,6.4367981-1.936203,6.9985657-5.2740631h4.3873596
	c-0.4003906,2.6987457-1.7979126,5.149292-3.9168091,6.867981c-2.2081299,1.6090546-4.8939514,2.4274292-7.6241455,2.3229675
	c-3.704895,0.2419128-7.3000488-1.3128204-9.6614075-4.1779175c-2.2319336-2.8960266-3.3946533-6.47435-3.2911987-10.1292572
	c-0.1235962-3.6649475,1.1667786-7.236969,3.6039734-9.9768677
	C495.7318115,195.0232544,499.0575256,193.5708618,502.5237427,193.6528931z M510.0418091,205.1938324
	c-0.0773621-2.0526581-0.9251404-4.0008545-2.3745728-5.4563904c-1.4431152-1.4441528-3.4184265-2.2285309-5.4591064-2.1678467
	c-1.9476013-0.0419922-3.8300171,0.7021942-5.2223816,2.0644836c-1.4779053,1.4856262-2.3521118,3.466629-2.4534302,5.5596619
	L510.0418091,205.1938324z"/>
<path class="st3" d="M533.3875122,193.6528931v4.7001495c-2.7290039-0.2303467-5.4241943,0.7318573-7.3901978,2.6383972
	c-1.7757568,2.3567047-2.6220093,5.2846069-2.3773193,8.2252655v12.0631714h-4.4390259v-26.9986725h4.1779175v5.6903229h0.1060791
	c1.4867554-3.83078,5.1851807-6.3450775,9.2942505-6.3185425L533.3875122,193.6528931z"/>
<path class="st3" d="M555.4794312,183.1047516c3.8765869-0.162262,7.6999512,0.94664,10.8881226,3.1579132
	c2.9100342,2.2338867,4.7706909,5.5684204,5.1434937,9.2180634h-4.9612427
	c-0.3549805-2.4230042-1.6497192-4.6088562-3.6040039-6.0846252c-2.1951904-1.4924316-4.8146362-2.2338867-7.4663696-2.1134338
	c-3.6013794-0.1218109-7.0484009,1.4655609-9.2969971,4.2812653c-2.4822998,3.3183136-3.7212524,7.4027252-3.5006104,11.5409393
	c-0.1257935,3.8413086,1.1243286,7.6012878,3.5251465,10.6025391c2.2450562,2.8064423,5.6801758,4.3924561,9.2724609,4.2812805
	c3.1622314,0.1071014,6.2390747-1.0374298,8.5625-3.1851196c2.2891235-2.183136,3.5261841-5.2470398,3.3945923-8.4075012v-0.5740051
	h-11.9054565v-4.1779175h16.3444824v19.6356506h-3.1334229l-1.305603-4.648468
	c-1.3553467,1.7745361-3.1314697,3.1833191-5.1680298,4.0990295c-2.1317749,0.9663544-4.4486084,1.4563904-6.7890625,1.4361572
	c-4.8173828,0.1149139-9.4475708-1.8658295-12.6915283-5.4291077c-3.3779907-3.6197205-5.197998-8.4221344-5.0673218-13.3715057
	c-0.2172852-5.2652283,1.4599609-10.4338989,4.727356-14.5682831
	C545.6653442,184.9704132,550.4852295,182.8647919,555.4794312,183.1047516z"/>
<path class="st3" d="M593.0806274,193.6528931v4.7001495c-2.7290039-0.2303467-5.4241943,0.7318573-7.3902588,2.6383972
	c-1.7756958,2.3567047-2.6219482,5.2846069-2.3772583,8.2252655v12.0631714h-4.4390259v-26.9986725h4.1779175v5.6903229h0.1060791
	c1.4867554-3.83078,5.1851807-6.3450775,9.2942505-6.3185425L593.0806274,193.6528931z"/>
<path class="st3" d="M606.8627319,193.6528931c3.6069336-0.177063,7.1101685,1.2355499,9.5852661,3.8651123
	c4.7004395,5.9947815,4.7004395,14.4242249,0,20.4190063c-2.4428711,2.6868439-5.9580688,4.1422119-9.5852661,3.9684753
	c-3.5822754,0.1580963-7.0578003-1.2414246-9.5308228-3.8379211c-2.4815674-2.82547-3.7645874-6.5067291-3.5768433-10.2625427
	c-0.194519-3.7633667,1.0678711-7.4571228,3.5251465-10.3142242
	C599.7628174,194.8767242,603.2619629,193.475235,606.8627319,193.6528931z M598.4552612,207.8050232
	c-0.1220703,2.6571808,0.7116089,5.2702484,2.3500366,7.3657532c2.8153687,3.3444061,7.8087769,3.7732239,11.1531982,0.9579468
	c0.3378906-0.2845001,0.6513672-0.5966949,0.9371948-0.9334717c1.6627197-2.0934601,2.5075684-4.7200317,2.3772583-7.3902283
	c0.1192627-2.6634674-0.7138672-5.2823944-2.3500366-7.3874969c-1.4768066-1.8567352-3.7403564-2.9114227-6.1118164-2.8478394
	c-2.3331299-0.0333252-4.5465698,1.0301056-5.9785767,2.8723145c-1.6448975,2.0925293-2.4880371,4.7038879-2.3772583,7.3631897
	V207.8050232z"/>
<path class="st3" d="M629.0089722,194.2812042v18.3817291c-0.0545654,1.4246063,0.4726562,2.8101044,1.4606323,3.8379211
	c1.0770264,1.0316467,2.5337524,1.5704498,4.0228882,1.4878387c2.2265625,0.1534271,4.4067993-0.687149,5.9540405-2.2956848
	c1.4075928-1.675766,2.1338501-3.819458,2.0345459-6.0057373v-15.4060669h4.4390259v26.9986725h-4.1779175v-4.2812653h-0.1033325
	c-1.7217407,3.2028809-5.1444702,5.1169128-8.7747192,4.9068756c-6.196167,0-9.2941895-3.2023773-9.2941895-9.6070251v-18.0172577
	H629.0089722z"/>
<path class="st3" d="M665.9818726,193.6528931c3.4644775-0.1578522,6.8113403,1.2756805,9.0874634,3.8923187
	c2.3369751,2.9140472,3.5253296,6.5834045,3.3401489,10.314209c0.1763306,3.6942749-1.0234375,7.3227386-3.3674316,10.18367
	c-2.2470703,2.5769348-5.5405273,3.9972076-8.9569092,3.8623962c-1.6885986-0.0028076-3.3589478-0.3489227-4.9096069-1.0172882
	c-1.5703125-0.6534729-2.9009399-1.7752228-3.81073-3.2123108h-0.105896v13.9454193h-4.4390259v-37.3401031h4.4390259v3.6557617
	h0.1060791C659.1107178,194.9020538,662.5084839,193.2127686,665.9818726,193.6528931z M657.1037598,207.7533417
	c-0.1427612,2.6710358,0.6412354,5.3095245,2.2195435,7.4691162c1.5369873,1.8713531,3.8733521,2.8986664,6.2913208,2.7662354
	c2.3219604,0.1183167,4.5552368-0.905426,5.9813232-2.7417603c1.5374756-2.263031,2.2807617-4.972229,2.1134033-7.7030182
	c0.1182251-2.5947113-0.6863403-5.1474304-2.2711792-7.2052765c-1.4950562-1.838028-3.7689209-2.8640747-6.1363525-2.7689514
	c-2.3101196-0.0892487-4.5266113,0.9181671-5.9785156,2.7172699
	C657.7349243,202.4405212,656.9497681,205.0818024,657.1037598,207.7533417z"/>
<path class="st3" d="M352.9566345,45.8837547v9.8028641h-48.7749634v27.8200645h45.4647217v9.8055878h-45.4647217v30.2708206
	h49.1421814v9.8028641H292.537384V45.8837547H352.9566345z"/>
<path class="st3" d="M375.8725891,70.0264282l15.0742188,22.059166h0.122406l15.8113403-22.059166h12.4983826
	l-21.8143005,29.1665115l24.5126038,34.1930161h-13.3606262l-17.6473083-26.2261505l-17.6473389,26.2261505H360.801178
	l23.7727661-33.3335419L362.514801,70.0263901L375.8725891,70.0264282z"/>
<path class="st3" d="M459.2078247,68.5549164c8.1292114-0.3699646,15.9823303,2.9926758,21.3247375,9.1310196
	c5.4842834,6.8389206,8.2738953,15.4496155,7.8417664,24.2052383c0.4126587,8.6695633-2.4035339,17.1842117-7.9043274,23.8978806
	c-5.2711792,6.0494003-12.9998779,9.3841934-21.017395,9.0685043c-3.9620972-0.0080719-7.8811951-0.8215179-11.519165-2.3908691
	c-3.6863708-1.5322113-6.8104553-4.1642303-8.9460754-7.5371094h-0.244812v32.7215424h-10.417572v-87.624733h10.417572v8.5788651
	h0.244812C442.3357544,71.9059067,449.0759277,68.5557632,459.2078247,68.5549164z M438.3726501,101.6436539
	c-0.3364258,6.2683563,1.5036316,12.4604263,5.2088013,17.5277405c3.6072083,4.3926163,9.0914001,6.8038101,14.7668457,6.4924545
	c5.4477234,0.2782059,10.6875305-2.123848,14.0324402-6.432785c3.6106262-5.3098602,5.3566284-11.6679764,4.9639893-18.077095
	c0.2770386-6.0895996-1.6117554-12.080513-5.3311768-16.9102097c-3.5091248-4.3119583-8.8447571-6.7186432-14.3996582-6.4952621
	c-5.4206848-0.210289-10.6225281,2.1511383-14.0324402,6.3702316c-3.7271729,5.0552826-5.5697021,11.2545319-5.2088013,17.5248871
	V101.6436539z"/>
<path class="st3" d="M524.7733154,68.5549164c8.1785889-0.3726425,16.0320435,3.2353058,21.0772095,9.6831818
	c5.3458862,7.3444519,8.0267334,16.2926865,7.5996704,25.3666763v1.2267151H506.021637v0.7343979
	c-0.2720642,5.3895416,1.6253662,10.6635742,5.2686462,14.6445007c3.8417358,3.7668915,9.0897827,5.7458572,14.4622192,5.4535446
	c9.0684814,0,14.5428467-4.1252975,16.4233398-12.3759766h10.2924194
	c-0.9398193,6.3325348-4.2191162,12.0827713-9.1908569,16.1159744c-5.1817627,3.7768402-11.4846802,5.697998-17.8920898,5.4535522
	c-9.968811,0-17.5258789-3.2685089-22.6711731-9.8055878c-5.2369385-6.7985001-7.9647522-15.1972504-7.7220764-23.7754822
	c-0.2910461-8.5982437,2.736908-16.9789276,8.4564819-23.4055557
	C508.8335266,71.7705002,516.6384888,68.360817,524.7733154,68.5549164z M542.4206543,95.640625
	c-0.1843262-4.8182602-2.1749268-9.3906937-5.5761719-12.8084564c-3.3859863-3.3880081-8.0206909-5.2274933-12.8084717-5.0836716
	c-4.5688477-0.0994873-8.9854126,1.644577-12.2535706,4.8388748c-3.4695435,3.4882202-5.5221863,8.1391602-5.7609558,13.0532532
	H542.4206543z"/>
<path class="st3" d="M595.7297974,68.5549164v11.0297089c-7.8444824,0-13.6253662,2.0635834-17.3426514,6.1907043
	c-3.7182617,4.126236-5.5769653,10.5599136-5.5761719,19.3010864v28.3095398h-10.4176025v-63.359436h9.805603v13.3578949h0.244812
	c4.8198242-9.8844604,12.0911865-14.8276291,21.81427-14.8294144L595.7297974,68.5549164z"/>
<path class="st3" d="M614.6011353,45.8837547v12.7458992h-10.4176025V45.8837547H614.6011353z M614.6011353,70.0265198v63.359436
	h-10.4176025v-63.359436H614.6011353z"/>
<path class="st3" d="M649.7706909,68.5549164c8.5788574,0,14.9309692,1.6546936,19.0562744,4.9639893
	c4.3303833,3.7335358,6.8150024,9.171608,6.8027344,14.8892517h-10.4176025V88.285759
	c-0.1790161-3.1703262-1.8344116-6.0732422-4.4716797-7.8417435c-3.0612793-1.9092712-6.6280518-2.8488159-10.232605-2.6955185
	c-3.413269-0.1699142-6.8123169,0.5479507-9.8654175,2.083519c-3.2989502,1.7245178-4.5753174,5.7968597-2.850769,9.095787
	c0.5591431,1.0696411,1.3952026,1.9695358,2.4209595,2.605629c2.9889526,1.7658768,6.2659912,2.990509,9.680481,3.6175995
	l9.805603,2.2059555c5.0853882,0.9128952,9.8766479,3.0352173,13.9699097,6.1879883
	c3.2382812,2.8525925,4.9979858,7.0269394,4.7789917,11.336937c0.2376099,5.8098679-2.4837646,11.3446808-7.2297363,14.7042999
	c-5.8504639,3.8074799-12.7611084,5.6537628-19.730896,5.271347c-6.8232422,0.3660126-13.5793457-1.5059357-19.241272-5.331192
	c-4.9086304-3.8920135-7.7185059-9.8527527-7.5969238-16.1159668h10.414856
	c-0.0040894,3.5982513,1.7316895,6.9764862,4.6593018,9.0684586c3.6900635,2.3315506,8.0189209,3.4456406,12.3759766,3.1851196
	c10.213623-0.0000458,15.3198853-3.1452484,15.3190308-9.4356689c0.0345459-2.7173996-1.392395-5.2441483-3.7372437-6.6178284
	c-5.0415039-2.4862061-10.4359741-4.1807175-15.9935913-5.0238342c-5.9884033-0.8251343-11.697998-3.0503845-16.6654053-6.4952621
	c-3.3826294-2.8439255-5.2421265-7.1051407-5.0265503-11.5191803c-0.1229248-5.142662,2.2813721-10.0192719,6.4354858-13.0532532
	C637.4943848,69.9749222,643.5985718,68.2274551,649.7706909,68.5549164z"/>
<path class="st3" d="M674.2888184,50.6448097c0.4836426-1.1143913,1.1803589-2.1235962,2.0509644-2.9709167
	c0.8725586-0.8450661,1.8981934-1.516098,3.0219727-1.9772224c4.7767334-2.0128822,10.2836914,0.1937561,12.3487549,4.9481392
	c0.508667,1.166748,0.765625,2.4275932,0.7540894,3.7003403c0.0139771,1.2934837-0.2428589,2.5755806-0.7540894,3.7638359
	c-0.4830322,1.119236-1.1749268,2.1362152-2.0386353,2.9965401c-0.859436,0.8494911-1.8780518,1.5210724-2.9974976,1.976162
	c-2.3469238,0.9398041-4.9655762,0.9398041-7.312561,0c-1.1270752-0.4542389-2.1539307-1.1256943-3.0219727-1.976162
	c-0.8713379-0.8564987-1.5679321-1.8742447-2.0509644-2.9965401c-0.5118408-1.1881294-0.7694092-2.4702225-0.7560425-3.7638359
	C673.5219116,53.0722771,673.779541,51.8114319,674.2888184,50.6448097z M675.8356934,57.5557632
	c0.3746338,0.9498749,0.9306641,1.8176804,1.637085,2.5549698c0.7007446,0.7253456,1.5395508,1.3031731,2.4669189,1.6995697
	c0.9741821,0.416584,2.0241699,0.6265793,3.0836182,0.6167183c1.0474243,0.0093079,2.0852661-0.2007713,3.0466919-0.6167183
	c0.9225464-0.3986473,1.7567749-0.9763069,2.4545898-1.6995697c0.7070923-0.7367363,1.2632446-1.6047134,1.637085-2.5549698
	c0.4025269-1.0220375,0.6036377-2.1122894,0.5921021-3.2106552c0.0090942-1.0775452-0.1920166-2.1465454-0.5921021-3.1471214
	c-0.7473145-1.8946877-2.2202148-3.4126167-4.0915527-4.216671c-0.9614258-0.415947-1.9992676-0.6260262-3.0467529-0.6167183
	c-2.0862427-0.0186119-4.09021,0.8128548-5.5504761,2.3029442c-0.7057495,0.7284508-1.2619019,1.5880966-1.637085,2.5304031
	c-0.3991699,1.0008316-0.6002197,2.0696602-0.5921021,3.1471214
	C675.2331543,55.4433899,675.4341431,56.5334282,675.8356934,57.5557632z M683.6030884,48.8817406
	c1.0299072-0.0808754,2.0564575,0.1947365,2.9074097,0.7806396c0.6645508,0.5998459,1.0133667,1.473896,0.944519,2.3664818
	c0.0704956,0.8146362-0.2351685,1.6168671-0.829834,2.1780777c-0.5895996,0.4757881-1.3097534,0.7612572-2.0652466,0.8185501
	l3.1470947,4.8590164h-1.8377686l-2.9954834-4.7329636h-1.8132324v4.7329636h-1.7128906v-11.002636L683.6030884,48.8817406z
	 M682.8469849,53.7663422c0.387207,0,0.7520142-0.0123253,1.0961914-0.0379105
	c0.3165894-0.0184021,0.6276855-0.0908203,0.9199219-0.2141113c0.2625732-0.1129684,0.4857178-0.3011971,0.6413574-0.5408974
	c0.1767578-0.3098259,0.2600098-0.6642342,0.2396851-1.02034c0.015564-0.3083344-0.0591431-0.6145477-0.2151489-0.8810234
	c-0.1380005-0.2124557-0.3286133-0.3857269-0.5531616-0.5029869c-0.244873-0.1232491-0.5087891-0.2042961-0.7806396-0.2397423
	c-0.2877808-0.0407982-0.578064-0.0617104-0.8687744-0.0624733h-2.2661133v3.499527L682.8469849,53.7663422z"/>
</svg>
