<svg id="Layer_1" data-name="Layer 1" xmlns="http://www.w3.org/2000/svg" width="200" height="52.65" viewBox="0 0 200 52.65"><defs><style>.cls-1{fill:#383838;}.cls-2{fill:#eaeae9;}.cls-3{fill:#fff;}.cls-4{fill:#ff8500;}</style></defs><polygon class="cls-1" points="64.26 23.61 64.26 6.03 75.4 6.03 75.4 8.26 66.54 8.26 66.54 13.72 73.68 13.72 73.68 15.92 66.54 15.92 66.54 23.61 64.26 23.61"/><path class="cls-1" d="M84.27,23.9a7,7,0,0,1-7.07-7.17,7.12,7.12,0,0,1,12.14-5.09l.1-1.81h2V23.64h-2l-.09-1.79A7,7,0,0,1,84.27,23.9Zm.07-12.11a4.81,4.81,0,0,0-4.87,4.94,4.81,4.81,0,0,0,4.87,4.95,4.74,4.74,0,0,0,4.85-4.95A4.74,4.74,0,0,0,84.34,11.79Z" transform="translate(0 -0.03)"/><path class="cls-1" d="M104.58,23.64V15.78c0-2.57-1.29-4-3.52-4a4.08,4.08,0,0,0-4,4.1v7.8H94.85V9.83h1.91l.14,1.61a6.09,6.09,0,0,1,4.42-1.87c3.29,0,5.51,2.4,5.51,6v8.1Z" transform="translate(0 -0.03)"/><path class="cls-1" d="M116.24,23.9a7,7,0,0,1-7.06-7.17,7.12,7.12,0,0,1,12.14-5.09l.1-1.81h2V23.64h-2.05l-.08-1.79A7,7,0,0,1,116.24,23.9Zm.08-12.11a4.8,4.8,0,0,0-4.87,4.94,4.8,4.8,0,0,0,4.87,4.95,4.74,4.74,0,0,0,4.84-4.95A4.73,4.73,0,0,0,116.32,11.79Z" transform="translate(0 -0.03)"/><path class="cls-1" d="M69.44,44.7C65.59,44.7,63,42.42,63,39v-.54h2.3V39c0,2.07,1.62,3.41,4.11,3.41,2.24,0,3.81-1.23,3.81-3,0-2-1.9-2.38-4.11-2.87-2.57-.58-5.77-1.3-5.77-4.88,0-3,2.33-5,5.95-5s5.8,2.05,5.8,5.23v.54H72.82V32c0-1.82-1.39-3-3.55-3S65.63,30,65.63,31.66c0,1.83,1.89,2.25,4.08,2.74,2.73.62,5.83,1.34,5.83,5C75.54,42.58,73.09,44.7,69.44,44.7Z" transform="translate(0 -0.03)"/><path class="cls-1" d="M79.18,47.89V30.69h1.89l.16,1.87a7.06,7.06,0,0,1,5.1-2.12,6.86,6.86,0,0,1,7,7.16,7.07,7.07,0,0,1-11.93,5.23v5.06Zm7.07-15.24a4.95,4.95,0,0,0,0,9.89,4.73,4.73,0,0,0,4.84-4.94A4.73,4.73,0,0,0,86.25,32.65Z" transform="translate(0 -0.03)"/><path class="cls-1" d="M102.16,44.85a7,7,0,0,1-7.07-7.16,7,7,0,0,1,7.07-7.16,6.89,6.89,0,0,1,5.07,2.07l.11-1.81h2V44.6h-2l-.09-1.79A6.93,6.93,0,0,1,102.16,44.85Zm.07-12.1a4.95,4.95,0,0,0,0,9.89,4.74,4.74,0,0,0,4.85-5A4.74,4.74,0,0,0,102.23,32.75Z" transform="translate(0 -0.03)"/><path class="cls-1" d="M113.26,44.6V30.79h1.92l.12,1.53a5.32,5.32,0,0,1,3.93-1.58h1.65v2.2h-1.74c-2.2,0-3.63,1.58-3.63,4V44.6Z" transform="translate(0 -0.03)"/><path class="cls-1" d="M129.23,44.85a6.91,6.91,0,0,1-6.95-7.17,6.9,6.9,0,1,1,13.8,0c0,.16,0,.33,0,.49l0,.51H124.58a4.74,4.74,0,0,0,8.87,1.44l.15-.3H136l-.36.78A6.79,6.79,0,0,1,129.23,44.85Zm4.53-8.38a4.47,4.47,0,0,0-4.53-3.74,4.61,4.61,0,0,0-4.6,3.74Z" transform="translate(0 -0.03)"/><path class="cls-1" d="M146.43,44.85a7,7,0,0,1-5-2l-.11,1.78h-2V27.4h2.25v5a6.91,6.91,0,0,1,4-1.84l.16,0,.17,0h.54a6.87,6.87,0,0,1,7,7.16A6.87,6.87,0,0,1,146.43,44.85Zm-.08-12.1a4.95,4.95,0,0,0,0,9.89,4.74,4.74,0,0,0,4.85-5A4.74,4.74,0,0,0,146.35,32.75Z" transform="translate(0 -0.03)"/><path class="cls-1" d="M162.42,44.85a7,7,0,0,1-7.06-7.16A7.12,7.12,0,0,1,167.5,32.6l.1-1.81h2V44.6h-2.06l-.08-1.79A7,7,0,0,1,162.42,44.85Zm.08-12.1a4.95,4.95,0,0,0,0,9.89,4.74,4.74,0,0,0,4.84-5A4.73,4.73,0,0,0,162.5,32.75Z" transform="translate(0 -0.03)"/><path class="cls-1" d="M182.94,44.6V36.74c0-2.57-1.28-4-3.52-4a4.08,4.08,0,0,0-3.95,4.1v7.8h-2.25V30.79h1.91l.14,1.61a6.09,6.09,0,0,1,4.42-1.87c3.29,0,5.5,2.4,5.5,6v8.1Z" transform="translate(0 -0.03)"/><polygon class="cls-1" points="197.46 44.45 192.3 38.32 190.76 38.36 190.76 44.45 188.73 44.45 188.73 27.48 190.76 27.48 190.76 36.41 192.4 36.41 196.93 30.91 199.29 30.87 199.53 30.87 194.1 37.39 200 44.45 197.46 44.45"/><polygon class="cls-1" points="64.26 23.61 64.26 6.03 75.4 6.03 75.4 8.26 66.54 8.26 66.54 13.72 73.68 13.72 73.68 15.92 66.54 15.92 66.54 23.61 64.26 23.61"/><polygon class="cls-2" points="23.33 6.29 25.62 42.35 37.58 31.54 31.65 1.57 23.33 6.29"/><polygon class="cls-3" points="0.09 36.38 25.62 42.35 23.33 6.29 6.55 4.09 0.09 36.38"/><path class="cls-4" d="M23.33,6.32,6.55,4.12l5.26-2.54C14.19.47,15.58-.15,18.41.08L19,.15,31.63,1.61l-8.3,4.71ZM45.84,3.25,31.65,1.61l1.68,8.44L23.94,16,4.79,12.85l-.66,3.29,20,3.37L33.9,13l1.6,8.09L24.79,29.28,2.39,24.84l-.58,2.88L25,32.6l11-8.82,1.54,7.79-12,10.82-25.53-6c-.56,4.23,1.52,7.83,5.56,8.7l27.51,7.23a14.94,14.94,0,0,0,18.05-14.8V8.17C51.21,5,49,3.51,45.84,3.25Z" transform="translate(0 -0.03)"/></svg>