<?xml version="1.0" encoding="UTF-8"?>
<!-- Generator: Adobe Illustrator 24.3.0, SVG Export Plug-In . SVG Version: 6.00 Build 0)  -->
<svg version="1.1" id="Layer_1" xmlns="http://www.w3.org/2000/svg" xmlns:xlink="http://www.w3.org/1999/xlink" x="0px" y="0px" viewBox="0 0 1018.1 818.13" style="enable-background:new 0 0 1018.1 818.13;" xml:space="preserve">
<style type="text/css">
	.st0{fill:#3F0613;}
	.st1{fill:#C60C30;}
</style>
<g>
	<g id="Group-11-Copy_5_" transform="translate(290.000000, 0.000000)">
		<path id="Fill-15_10_" class="st0" d="M528.86,778.14c-4.74,1.03-10.02,1.87-19.72,1.81c-30.21-0.17-37.14-13.7-36.97-42.51    c0.17-29.43,8.5-42.1,36.53-41.94c10.74,0.06,18.52,1.79,23.8,3.2c0,0,5.06,1.32,10.73,3.27l-0.4,64.67    c-0.16,28.2-9.28,42.09-39.8,41.92c-10.28-0.06-20.54-1.96-26.76-4.59c-1.09-0.47-1.71-0.93-1.71-1.7l0.16-0.61l1.75-5.97    c0.32-0.92,0.79-1.22,1.41-1.22c0.47,0,1.4,0.31,1.4,0.31c7.3,2.19,12.9,3.91,22.56,3.96c10.9,0.06,18.53-1.58,23.09-7.23    c2.79-3.36,4.36-7.28,4.8-13.54L528.86,778.14z M530.9,708.04c0,0-9.79-2.81-21.01-2.88c-17.13-0.1-24.79,5.22-24.95,32.5    c-0.17,29.12,8.85,32.54,24.73,32.63c11.53,0.06,20.88-2.79,20.88-2.79L530.9,708.04z"/>
		<path id="Fill-18_10_" class="st0" d="M-2.47,703.01c-22.58-0.13-23.59,12.9-23.7,32.36c-0.11,19.31,0.75,32.34,23.32,32.47    c22.58,0.13,23.59-12.89,23.7-32.2C20.97,716.17,20.12,703.13-2.47,703.01 M-2.9,777.64c-32.54-0.18-36.32-19.36-36.19-42.35    c0.13-23.14,4.14-42.27,36.68-42.09c32.7,0.19,36.33,19.36,36.19,42.5C33.65,758.69,29.8,777.83-2.9,777.64"/>
		<path id="Fill-20_10_" class="st0" d="M129.75,778.4c-13.7-0.08-25.51-4.28-27.53-5.06c-0.78-0.31-1.24-0.77-1.24-1.69l0.16-0.76    l1.44-5.82c0.32-1.07,0.63-1.53,1.72-1.52l0.78,0.16c1.24,0.47,12.28,4.52,25.05,4.59c13.24,0.07,20.89-4.02,20.94-13.37    c0.07-12.72-9.89-12.32-22.03-14.23c-7.63-1.27-27.08-2.76-26.96-22.99c0.12-19.77,18.05-23.81,31.75-23.73    c13.39,0.07,23.81,2.89,25.52,3.36c1.09,0.31,1.4,0.93,1.39,1.69v0.15l-1.13,6.89c-0.16,0.92-0.79,1.22-1.41,1.22l-0.31,0    c-2.18-0.32-13.69-2.99-22.88-3.04c-11.21-0.06-20.57,2.95-20.63,12.6c-0.06,10.42,10.52,11.7,20.16,12.99    c14,1.92,29.11,3.08,28.98,23.91C163.42,773.68,147.82,778.5,129.75,778.4"/>
		<path id="Fill-22_10_" class="st0" d="M-38.09,662.38l-0.45,0c-0.97-0.01-3.46-0.05-3.46-0.05c-0.2,0-20.08-0.4-33,1.41    c-14.66,2.06-24.09,5.44-28.9,7.55c-0.37,0.1-0.64,0.43-0.64,0.82l-0.03,5.17v0.01l-0.56,96.36h0.04l0,0.54    c0,0.48,0.38,0.87,0.87,0.87l11.66,0.06c0.49,0,0.89-0.38,0.89-0.86l0.22-45.34l35.29,0.19c0.49,0,0.88-0.38,0.88-0.86l0.06-9.67    c0-0.48-0.39-0.87-0.87-0.88l-35.29-0.19l0.21-36l0-0.02l0.01-1.45c0-0.74,0.06-0.85,0.89-1.08l1.96-0.47l0.31-0.08    c4.38-1.11,11-2.79,23.61-3.78c5.4-0.42,13.38-0.47,19.1-0.44l0.08,0.01l2.79,0.02c1.5,0.01,2.69,0.03,3.39,0.04    c0,0,0-0.01,0.01-0.02l0.87,0c0.49,0,0.88-0.38,0.89-0.87l0.06-10.15C-37.21,662.77-37.61,662.38-38.09,662.38"/>
		<path id="Fill-24_10_" class="st0" d="M93.23,695.63l0.01-1.01c0-0.48-0.39-0.87-0.88-0.87c0,0-1.13-0.07-3.2-0.08    c-2.06-0.01-3.87,0.04-3.87,0.04c-0.09,0-0.18,0.01-0.26,0.04c-7.92,0.31-20.95,2.37-27.24,5.07c-5.15,2.21-5.67,2.85-5.67,2.85    s-0.04,4.58-0.06,8.09l-0.39,65.34c0,0.48,0.39,0.87,0.88,0.87l10.55,0.06c0.49,0,0.89-0.38,0.89-0.86l0.38-67.94    c8.52-2.04,16.74-2.78,26.68-2.76l1.24,0.01c0.49,0,0.89-0.38,0.89-0.86l0-0.53c0.01-0.14,0.02-0.29,0.02-0.44l0.04-6.59    C93.25,695.9,93.24,695.76,93.23,695.63"/>
		<path id="Fill-26_10_" class="st0" d="M339.2,697.02l0.01-1.01c0-0.48-0.39-0.87-0.88-0.87c0,0-1.13-0.07-3.2-0.08    c-2.06-0.01-3.86,0.04-3.86,0.04c-0.09,0-0.18,0.01-0.26,0.04c-7.92,0.31-20.95,2.37-27.24,5.07c-5.15,2.21-5.67,2.85-5.67,2.85    s-0.03,4.58-0.06,8.09l-0.39,65.34c0,0.48,0.39,0.87,0.88,0.87l10.55,0.06c0.49,0,0.88-0.38,0.89-0.86l0.39-67.94    c8.51-2.04,16.73-2.78,26.67-2.76l1.25,0.01c0.49,0,0.89-0.38,0.89-0.86l0-0.53c0.01-0.14,0.03-0.29,0.03-0.44l0.04-6.59    C339.22,697.29,339.21,697.15,339.2,697.02"/>
		<path id="Fill-28_10_" class="st0" d="M194.35,696.29l-10.51-0.06c-0.49,0-0.89,0.38-0.89,0.86l-0.47,78.73    c0,0.48,0.39,0.87,0.88,0.87l10.52,0.06c0.48,0,0.89-0.38,0.89-0.86l0.46-78.73C195.23,696.69,194.83,696.3,194.35,696.29"/>
		<path id="Fill-30_10_" class="st0" d="M194.56,663.05L184.03,663c-0.49,0-0.89,0.38-0.89,0.86l-0.1,17.7    c0,0.48,0.39,0.87,0.88,0.87l1.1,0.01c0.12,0.02,0.23,0.03,0.35,0.03l7.63,0.04c0.12,0,0.23-0.01,0.35-0.03l1.1,0.01    c0.49,0,0.89-0.38,0.89-0.86l0.1-17.7C195.44,663.45,195.05,663.06,194.56,663.05"/>
		<path id="Fill-32_10_" class="st0" d="M365.03,697.26l-10.53-0.06c-0.21,0-0.38,0.08-0.53,0.19c-0.21,0.16-0.36,0.39-0.36,0.67    l-0.47,78.73c0,0.48,0.39,0.87,0.88,0.87l10.55,0.06c0.49,0,0.89-0.38,0.89-0.86l0.46-78.73    C365.91,697.65,365.52,697.26,365.03,697.26"/>
		<path id="Fill-34_10_" class="st0" d="M354.57,683.39l1.1,0.01c0.12,0.02,0.23,0.03,0.35,0.03l7.63,0.04    c0.12,0,0.24-0.01,0.35-0.03l1.1,0.01c0.49,0,0.88-0.38,0.89-0.86l0.11-17.7c0-0.48-0.39-0.87-0.88-0.87l-10.53-0.06    c-0.49,0-0.89,0.38-0.89,0.86l-0.1,17.7C353.68,682.99,354.08,683.39,354.57,683.39"/>
		<path id="Fill-36_10_" class="st0" d="M455.74,717.86c0.09-16.4-8.12-22.12-26.65-22.22c-7.07-0.04-17.02,0.82-25.02,2.67    c-10.98,2.55-16.75,5.98-16.75,5.98s-0.04,4.66-0.06,7.67l-0.4,65.03c0,0.48,0.39,0.87,0.88,0.87l10.58,0.06    c0.49,0,0.89-0.38,0.89-0.86l0.37-66.96c0,0,14.67-4.73,29.15-4.65c10.73,0.06,14.64,3.52,14.7,13.27l-0.35,58.57    c0,0.48,0.39,0.87,0.88,0.87l1.4,0.01l0.07,0.01l7.63,0.04l0.07-0.01l1.37,0.01c0.49,0,0.89-0.38,0.89-0.86L455.74,717.86z"/>
		<path id="Fill-38_10_" class="st0" d="M283.77,775.66l-34.31-49.12l31.86-27.18c0,0,1.17-0.99,1.28-1.45    c0.19-0.77-0.26-1.24-1.33-1.25l-11.5-0.05c-0.63,0-1.31,0.07-2.27,0.92l-35.99,30.82c0,0-0.61,0.58-0.6-0.19l0.4-67.15    c0-0.5-0.41-0.8-0.91-0.67l-10.62,2.61c-0.51,0.13-0.92,0.64-0.93,1.13l-0.63,111.94c0,0.48,0.39,0.87,0.88,0.88l10.61,0.06    c0.49,0,0.89-0.38,0.89-0.86l0.22-33.68l9.74-8.3l29.19,42.15c0.47,0.47,0.94,0.93,1.89,0.94l11.37,0.06    C284.07,777.27,284.34,776.43,283.77,775.66"/>
	</g>
	<g id="Group-16-Copy_17_" transform="translate(118.000000, 0.000000)">
		<path id="Fill-1_34_" class="st0" d="M847.12,458.81l-0.02-0.04L847.12,458.81z"/>
		<path id="Fill-2_20_" class="st0" d="M512.95,453.07c0.23-39.42-24.74-47.63-62.3-47.85c-22.46-0.12-49.86,3.9-65.35,7.95    c-10.75,2.75-21.01,8.23-23.29,9.5c-0.31,0.16-0.47,0.43-0.47,0.77c-0.01,1.54-0.01,6.32-0.03,9.49l-0.82,138.59l0,0.05    l-0.01,1.59c-0.01,0.98,0.81,1.79,1.82,1.79l2.1,0.01c0,0,0.17,0.02,0.25,0.02l33.65,0.19l0.22-0.02l1.47,0.01    c1.01,0,1.84-0.79,1.84-1.77l0.01-1.59l0-0.02l0.79-134.17l1.06-0.31c0.22-0.05,21.89-5.38,41.64-5.27    c18.84,0.1,26.13,7.56,26.02,26.62l-0.59,100.67c-0.01,0.06-0.02,0.12-0.02,0.18l-0.09,14.27c0,0.99,0.81,1.79,1.82,1.8l1.72,0.01    c0.11,0,0.21,0.02,0.32,0.02l33.99,0.19c0.12,0,0.22-0.02,0.33-0.02l1.23,0c1,0.01,1.84-0.79,1.84-1.78l0-0.61    c0.08-0.31,0.13-0.65,0.13-1.01L512.95,453.07z"/>
		<path id="Fill-4_20_" class="st0" d="M658.99,548.91c0,0.53-1.05,0.84-1.05,0.84c-0.59,0.17-14.58,3.84-30.76,3.74    c-28.34-0.16-41.65-6.27-41.33-61.43c0.3-50.44,10.43-58.9,40.71-58.73c15.48,0.08,31.81,3.72,31.97,3.75l1.11,0.24L658.99,548.91    z M701.53,341.27l0.01-1.08c0,0-0.01-0.1-0.02-0.15l0.01-1.29c0-0.99-0.81-1.65-1.82-1.48l-2.95,0.49h-0.09    c0,0-10.55,1.74-19.55,3.23c-0.12-0.01-0.25,0-0.38,0.02l-14.66,2.44c-1.01,0.17-1.84,1.11-1.84,2.08l-0.01,1.37v0.02l-0.01,1.14    c0,0.12-0.04,0.2-0.04,0.34l-0.38,63.62l-1.78-0.47c-7.54-1.97-23.03-5.3-42.18-5.41c-59.6-0.33-72.03,34.79-72.34,87.61    c-0.39,65.41,19.84,86.51,83.18,86.86c18.8,0.1,37.22-2.15,54.77-6.7c8.41-2.25,17.45-7.4,18.58-8.46    c0.07-0.07,0.11-0.21,0.11-0.33c0-1.37,0.18-10.47,0.2-14.85l1.23-208.7C701.57,341.45,701.53,341.37,701.53,341.27L701.53,341.27    z"/>
		<path id="Fill-6_24_" class="st0" d="M47.94,339.6l-4.32-0.02c-1.71-0.06-4.22-0.09-8.15-0.11c0,0-42.38-0.87-70.47,2.86    c-45.45,6.04-70.4,18.35-72.58,20.63c-0.1,0.11-0.16,0.34-0.16,0.47c0,1.07-0.04,6.81-0.06,9.15l-1.16,195.97l0.02,0.11    l-0.01,1.85c0,0.98,0.81,1.79,1.82,1.79l1.97,0.01c0,0,0.04,0.03,0.06,0.03l36.8,0.2c0.15,0,0.28-0.02,0.41-0.02l1.65,0.01    c1.01,0,1.83-0.79,1.84-1.77l0.09-14.28l-0.01-0.08l0.44-73.54l59.79,0.34c0.04,0,0.09,0.02,0.13,0.02l14.64,0.08    c1.02,0.01,1.84-0.79,1.84-1.78l0.13-29.33c0-0.4-0.14-0.77-0.36-1.06l-0.02-0.02c-0.06-0.07-0.12-0.14-0.18-0.21    c-0.06-0.05-0.12-0.1-0.19-0.15l-0.06-0.05c-0.3-0.2-0.66-0.32-1.06-0.32l-14.65-0.08c-0.17,0-0.32-0.04-0.48,0l-59.35-0.33    l0.4-67.01c0-0.6,1.08-0.93,1.08-0.93c9-2.14,22.82-5.75,50.69-7.82c18.85-1.4,58.09-0.67,58.09-0.67c0.68,0,1.24-0.04,1.7-0.13    h0.26c1.01,0,1.84-0.8,1.85-1.78l0-0.75c0.07-0.59,0.1-1.29,0.1-2.13l0.09-13.85l0.01-0.1l0.07-12.49    C50.67,340.82,49.45,339.61,47.94,339.6"/>
		<path id="Fill-9_24_" class="st0" d="M147.99,404.63c-1.65-0.82-2.22-0.79-12.45-0.84c-18.03-0.1-41.2,3.05-56.4,7.67    c-10.74,2.98-21.07,8.75-22.32,10.46c-0.08,0.12-0.13,0.26-0.13,0.4c0,0.14-0.05,5.42-0.06,8.59l-0.74,126.18    c0,0.04-0.01,0.08-0.01,0.08l-0.09,14.31c0,0.99,0.81,1.79,1.83,1.79l37.7,0.21c1.01,0.01,1.84-0.78,1.84-1.77l0.01-1.6l0-0.05    l0.77-131.31c0-0.6,1.08-0.9,1.08-0.9c8.4-2,25.13-4.09,46.9-3.96c0.22,0,0.39-0.02,0.58-0.03l1.1,0c1.02,0,1.84-0.79,1.84-1.77    l0.01-2.04c0-0.19,0.01-0.35,0.02-0.54l0.12-20.9C149.61,406.07,148.99,405.13,147.99,404.63"/>
		<path id="Fill-11_20_" class="st0" d="M847.3,459.11c-4.19-17.7-14.05-23.55-33.52-23.65c-22.1-0.12-31.38,6.25-35.11,22.31    c-2.37,8.98-2.77,21.19-2.77,21.19l73.92,0.42C849.82,479.37,849.56,467.81,847.3,459.11L847.3,459.11z M890.95,499.87    c-0.02,3.54-2.03,7.38-6.98,7.35l-107.9-0.6c-0.09,14.8,4.11,30.27,12.99,37.07c8.54,6.8,21.06,9.76,38.87,9.86    c20.45,0.11,32.7-4.96,42.93-7.49c1.33-0.3,1.99-0.3,2.65-0.29c1.98,0.01,3.95,0.99,4.59,4.2l3.87,16.43c0,0,0.33,1.28,0.32,1.93    c-0.01,2.57-1.67,3.85-3.99,4.8c-11.25,4.44-31.07,10.11-57.14,9.97c-64.67-0.36-89.94-25.27-89.56-88.28    c0.36-60.46,17.68-89.31,82.02-88.95c33.34,0.19,51.1,8.65,62.88,24.15c11.14,14.53,14.7,27.73,14.55,54.41L890.95,499.87z"/>
		<path id="Fill-13_20_" class="st0" d="M284.93,455.96c-4.19-17.7-14.06-23.55-33.52-23.65c-22.11-0.12-31.39,6.25-35.11,22.31    c-2.36,8.98-2.77,21.19-2.77,21.19l73.92,0.42C287.44,476.22,287.18,464.67,284.93,455.96L284.93,455.96z M328.57,496.72    c-0.02,3.54-2.03,7.38-6.98,7.35l-107.9-0.6c-0.09,14.8,4.11,30.27,12.98,37.07c8.54,6.8,21.07,9.76,38.87,9.86    c20.45,0.11,32.7-4.96,42.94-7.49c1.32-0.3,1.99-0.3,2.64-0.29c1.98,0.01,3.95,0.99,4.6,4.2l3.86,16.43c0,0,0.33,1.28,0.32,1.93    c-0.01,2.57-1.67,3.85-3.99,4.8c-11.24,4.44-31.07,10.11-57.14,9.97c-64.68-0.36-89.93-25.27-89.56-88.28    c0.36-60.46,17.68-89.31,82.02-88.95c33.32,0.19,51.09,8.65,62.87,24.15c11.14,14.53,14.7,27.73,14.54,54.41L328.57,496.72z"/>
	</g>
	<g id="Page-1-Copy_10_">
		<path id="Fill-1_25_" class="st1" d="M188.42,152.16c-0.77-0.39-1.66-1.22-0.53-2.54c10.68-12.53,106.35-102.54,245.68-129.68    C563.83-5.44,697.6,14.91,829.14,90.58c2.42,1.3,3.14,8.02-5.4,4.81c-45.23-16.97-147.06-76.07-296.59-51.25    c-24.17,4.9-62.68,10.69-106.4,31.82c-19.82,9.63-42.08,22.75-88.74,54.84C251.97,185.82,200.08,158.09,188.42,152.16"/>
		<path id="Fill-3_10_" class="st1" d="M515.21,135.83c-0.41-0.35-0.55-0.95,0.2-1.64c7.6-6.12,44.91-36.99,115.89-43.77    c47.03-4.52,110.64-0.13,157.97,22.5c4.52,2.83,3.65,6.81-2.61,4.71c-23.42-8.76-74.1-17.33-111.82-10.58    c-10.89,0.97-35.51,6.33-49.15,11.47c-9.3,3.5-20.8,7.93-41.54,18.63C547.91,155.85,521.09,139.29,515.21,135.83"/>
		<path id="Fill-5_10_" class="st1" d="M682.31,201.74c0.8,0.52,0.32,1.22,0.24,1.3c-6.29,5.42-48.54,40.82-135.95,52.15    c-61.22,7.93-141.55,5.99-206.2-26.56c-2.32-1.02-3.51-5.17,3.49-3.27c24.99,6.54,85.12,23.22,155.46,13.77    c13.2-1.64,42.5-8.43,58.38-14.31c10.87-4.01,22.04-7.79,45.38-20.12C643.54,183.39,675.85,198.81,682.31,201.74"/>
	</g>
</g>
</svg>