<svg xmlns="http://www.w3.org/2000/svg" viewBox="0 0 96 31.42"><defs><style>.cls-1{fill:#b72318;}</style></defs><title>miles-logo-redAsset 2</title><g id="Layer_2" data-name="Layer 2"><g id="Layer_1-2" data-name="Layer 1"><g id="Capa_2" data-name="Capa 2"><g id="Capa_1-2" data-name="Capa 1-2"><path class="cls-1" d="M82.41,24.76a8.51,8.51,0,0,0,5.56,2c1.46,0,2.59-.71,2.59-1.7,0-3.05-9.83-2-9.83-8.48,0-3.89,3.77-6.32,7.79-6.32a12.59,12.59,0,0,1,6.85,2.05l-2.55,4a6.83,6.83,0,0,0-3.89-1.38c-1.51,0-2.76.57-2.76,1.63,0,2.64,9.83,1.59,9.83,8.62,0,3.89-3.81,6.27-8.07,6.27a14,14,0,0,1-8.16-2.76Z"/><path class="cls-1" d="M14.64,10.83a9,9,0,0,1-9-9.12H0V31H5.66V12.7a1.54,1.54,0,0,0,.45.53,13.62,13.62,0,0,0,8.54,2.88,13.64,13.64,0,0,0,8.55-2.88,1.65,1.65,0,0,0,.45-.53V31h5.66V1.7H23.65a9.06,9.06,0,0,1-9,9.13h0"/><path class="cls-1" d="M41.2,31H35.77V10.66H41.2ZM38.47,0a3.52,3.52,0,1,1-.06,0h.06"/><path class="cls-1" d="M71.41,18.21a4.05,4.05,0,0,0-4-3.56A4.39,4.39,0,0,0,63,18.21Zm5.06,9.51a11,11,0,0,1-8.33,3.64c-6.06,0-10.62-4.19-10.62-10.54,0-5.66,3.85-10.59,9.87-10.59C73,10.23,77,15,77,20.61a8.81,8.81,0,0,1-.13,1.54h-14A5.32,5.32,0,0,0,68.28,27a7.14,7.14,0,0,0,5.09-2.34Z"/><rect class="cls-1" x="47.48" y="1.26" width="5.44" height="29.7"/></g></g></g></g></svg>