<svg width="721" height="206" viewBox="0 0 721 206" fill="none" xmlns="http://www.w3.org/2000/svg">
<g clip-path="url(#clip0_1255_3)">
<path d="M103.8 142.5C68.5 142.5 39.8 126.9 39.8 107.6C39.8 88.3 68.4001 72.7 103.7 72.7V55.5C114.6 55.5 125.1 57 134.1 59.6L103.9 90V107.5L134.1 76.7C154.2 82.6 167.8 94.2 167.8 107.5C167.8 126.8 139.2 142.5 103.8 142.5ZM0.800049 205.6H206.6V-0.199997H0.800049V205.6Z" fill="black"/>
<path d="M272.7 136.2C269 136.2 265.5 135.7 262.5 134.9C259.5 134.1 256.9 132.8 254.7 131.2C252.6 129.6 250.9 127.6 249.7 125.2C248.5 122.8 247.9 120.1 247.8 117.1H260.8C261.2 120.2 262.3 122.4 264.3 123.8C266.3 125.2 269.1 125.9 272.7 125.9C273.9 125.9 275.1 125.7 276.3 125.5C277.4 125.3 278.5 124.9 279.4 124.4C280.3 123.9 281 123.2 281.5 122.3C282 121.5 282.3 120.5 282.3 119.3C282.3 118.1 282 117.1 281.5 116.3C280.9 115.5 280 114.8 279 114.2C277.9 113.6 276.6 113.1 275 112.7C273.4 112.2 271.6 111.9 269.6 111.4C266.8 110.8 264.3 110.1 261.9 109.3C259.5 108.5 257.4 107.5 255.6 106.3C253.8 105.1 252.4 103.5 251.3 101.6C250.3 99.7 249.8 97.3 249.8 94.4C249.8 91.5 250.3 89 251.5 86.8C252.6 84.7 254.2 82.9 256.1 81.5C258.1 80.1 260.4 79.1 263.1 78.4C265.8 77.7 268.7 77.4 271.7 77.4C274.8 77.4 277.6 77.8 280.2 78.5C282.8 79.2 285.1 80.3 287 81.6C288.9 82.9 290.4 84.7 291.6 86.9C292.7 89 293.4 91.4 293.7 94.2H281.1C280.7 92 279.7 90.3 278.1 89.1C276.5 87.9 274.2 87.3 271.4 87.3C268.7 87.3 266.6 87.8 265 88.9C263.4 90 262.6 91.3 262.6 93.1C262.6 94.2 262.9 95.1 263.5 95.9C264.1 96.6 265 97.2 266.2 97.7C267.3 98.2 268.8 98.7 270.5 99.1C272.2 99.5 274.2 99.9 276.3 100.5C278.8 101 281.3 101.7 283.6 102.5C286 103.3 288 104.3 289.8 105.6C291.6 106.9 293 108.6 294.1 110.5C295.2 112.5 295.7 114.9 295.7 117.9C295.7 120.8 295.1 123.4 293.9 125.6C292.7 127.8 291.1 129.7 289.1 131.3C287 132.8 284.7 134 281.9 134.8C278.9 135.7 275.9 136.2 272.7 136.2Z" fill="black"/>
<path d="M317.6 117.3L313.6 121.4V134.8H301.9V78.7H313.6V96.2C313.6 99.2 313.5 101.7 313.4 103.9C313.3 106 313.2 107.8 313.2 109.1L326.4 94.7H340.2L325.8 109.5L341.8 134.8H328L317.6 117.3Z" fill="black"/>
<path d="M360.7 128.1C363.4 128.1 365.5 127.3 367 125.9C368.6 124.4 369.4 122.6 369.4 120.4V115.2C368.6 115.7 367.5 116.2 366.3 116.5C365.1 116.8 363.8 117.1 362.5 117.4C359.9 117.9 358 118.6 356.7 119.5C355.4 120.4 354.8 121.6 354.8 123.3C354.8 125 355.4 126.3 356.6 127C357.7 127.8 359 128.1 360.7 128.1ZM370.6 134.8C370.3 134.3 370 133.7 369.8 132.9C369.6 132.1 369.3 131.1 369.3 129.9H369.1C367.8 131.7 366.2 133.2 364.4 134.3C362.6 135.4 360.1 135.9 357 135.9C355 135.9 353.3 135.7 351.5 135.1C349.8 134.6 348.4 133.8 347.1 132.8C345.9 131.8 344.9 130.5 344.2 129C343.5 127.5 343.2 125.7 343.2 123.7C343.2 121.5 343.7 119.7 344.4 118.2C345.1 116.7 346.4 115.5 347.8 114.7C349.2 113.8 350.9 113.1 352.8 112.6C354.7 112.1 356.8 111.8 359 111.5C362.6 111 365.1 110.4 366.7 109.7C368.3 109 369.1 107.9 369.1 106.4C369.1 104.9 368.6 103.8 367.6 102.9C366.6 102 365.2 101.6 363.1 101.6C360.8 101.6 359.1 102.1 358 103.1C356.9 104.1 356.2 105.3 356.1 106.9H345.2C345.3 105.2 345.7 103.5 346.4 101.9C347.1 100.3 348.2 98.8 349.7 97.6C351.2 96.4 353 95.4 355.2 94.6C357.4 93.9 360 93.5 363 93.5C365.6 93.5 367.8 93.7 369.6 94C371.4 94.4 373.1 95 374.5 95.8C376.6 97 378.2 98.6 379.2 100.7C380.2 102.8 380.7 105.1 380.7 107.8V128.4C380.7 131.5 381.2 133.4 382.2 134V134.7H370.6V134.8Z" fill="black"/>
<path d="M385.9 94.7H391.9V81.9H403.5V94.7H411.4V102.3H403.5V122.2C403.5 123.7 403.9 124.7 404.6 125.3C405.4 125.8 406.4 126.1 407.9 126.1C408.3 126.1 408.7 126.1 409.3 126C409.8 126 410.3 125.9 410.7 125.9H411.3V134.7C410.6 134.8 409.8 134.9 408.5 135.1C407.4 135.3 406 135.3 404.4 135.3C402.6 135.3 400.9 135.1 399.4 134.8C397.9 134.5 396.6 133.9 395.4 133C394.3 132.2 393.4 131.1 392.8 129.7C392.2 128.4 391.9 126.6 391.9 124.6V102.1H385.9V94.7Z" fill="black"/>
<path d="M414.8 94.7H420.8V81.9H432.4V94.7H440.3V102.3H432.4V122.2C432.4 123.7 432.8 124.7 433.5 125.3C434.3 125.8 435.3 126.1 436.8 126.1C437.2 126.1 437.6 126.1 438.2 126C438.7 126 439.2 125.9 439.6 125.9H440.2V134.7C439.5 134.8 438.7 134.9 437.4 135.1C436.3 135.3 434.9 135.3 433.3 135.3C431.5 135.3 429.8 135.1 428.3 134.8C426.8 134.5 425.5 133.9 424.3 133C423.2 132.2 422.3 131.1 421.7 129.7C421.1 128.4 420.8 126.6 420.8 124.6V102.1H414.8V94.7Z" fill="black"/>
<path d="M465.2 102C462.4 102 460.4 102.8 459 104.4C457.6 106 456.7 108.2 456.2 111H473.4C473.2 108.2 472.4 106 470.9 104.4C469.4 102.9 467.6 102 465.2 102ZM465.9 136C462.6 136 459.7 135.5 457.1 134.4C454.5 133.3 452.3 131.8 450.5 129.9C448.7 128 447.3 125.8 446.3 123.2C445.3 120.6 444.8 117.9 444.8 114.8C444.8 111.8 445.3 109 446.3 106.4C447.3 103.8 448.7 101.6 450.5 99.7C452.3 97.8 454.5 96.3 457 95.2C459.5 94.1 462.3 93.6 465.4 93.6C468.3 93.6 470.8 94.1 473.1 95C475.4 95.9 477.4 97.1 479.1 98.7C481.4 100.9 483 103.7 484.1 107C485.2 110.3 485.6 113.9 485.6 117.8H456.4C456.8 120.8 457.8 123.1 459.4 124.9C461 126.6 463.2 127.5 466.1 127.5C467.9 127.5 469.5 127.2 470.7 126.5C471.8 125.8 472.8 124.8 473.5 123.6H485C484.5 125.4 483.7 127 482.6 128.6C481.5 130.1 480.2 131.5 478.6 132.6C477 133.7 475.2 134.6 473 135.2C470.7 135.7 468.4 136 465.9 136Z" fill="black"/>
<path d="M510.2 102C507.4 102 505.4 102.8 504 104.4C502.6 106 501.7 108.2 501.2 111H518.3C518.1 108.2 517.3 106 515.8 104.4C514.4 102.7 512.5 102 510.2 102ZM510.8 136C507.5 136 504.6 135.5 502 134.4C499.4 133.3 497.2 131.8 495.4 129.9C493.6 128 492.2 125.8 491.2 123.2C490.2 120.6 489.7 117.9 489.7 114.8C489.7 111.8 490.2 109 491.2 106.4C492.2 103.8 493.6 101.6 495.4 99.7C497.2 97.8 499.4 96.3 501.9 95.2C504.4 94.1 507.2 93.6 510.3 93.6C513.2 93.6 515.7 94.1 518 95C520.3 95.9 522.3 97.1 524.1 98.7C526.4 100.9 528 103.7 529.1 107C530.2 110.3 530.6 113.9 530.6 117.8H501.4C501.8 120.8 502.8 123.1 504.4 124.9C506 126.6 508.2 127.5 511.1 127.5C512.9 127.5 514.5 127.2 515.7 126.5C516.8 125.8 517.8 124.8 518.5 123.6H530C529.5 125.4 528.7 127 527.6 128.6C526.5 130.1 525.2 131.5 523.6 132.6C522 133.7 520.2 134.6 518 135.2C515.7 135.7 513.3 136 510.8 136Z" fill="black"/>
<path d="M533.3 94.7H539.3V81.9H550.9V94.7H558.8V102.3H550.9V122.2C550.9 123.7 551.3 124.7 552 125.3C552.8 125.8 553.8 126.1 555.3 126.1C555.7 126.1 556.1 126.1 556.7 126C557.2 126 557.7 125.9 558.1 125.9H558.7V134.7C558 134.8 557.2 134.9 555.9 135.1C554.8 135.3 553.4 135.3 551.8 135.3C550 135.3 548.3 135.1 546.8 134.8C545.3 134.5 544 133.9 542.8 133C541.7 132.2 540.8 131.1 540.2 129.7C539.6 128.4 539.3 126.6 539.3 124.6V102.1H533.3V94.7Z" fill="black"/>
<path d="M581.5 128.1C584.2 128.1 586.3 127.3 587.8 125.9C589.4 124.4 590.2 122.6 590.2 120.4V115.2C589.4 115.7 588.3 116.2 587.1 116.5C585.9 116.8 584.6 117.1 583.3 117.4C580.7 117.9 578.8 118.6 577.5 119.5C576.2 120.4 575.6 121.6 575.6 123.3C575.6 125 576.2 126.3 577.4 127C578.5 127.8 579.9 128.1 581.5 128.1ZM591.5 134.8C591.2 134.3 590.9 133.7 590.7 132.9C590.5 132.1 590.2 131.1 590.2 129.9H590C588.7 131.7 587.1 133.2 585.3 134.3C583.5 135.4 581 135.9 577.9 135.9C575.9 135.9 574.2 135.7 572.4 135.1C570.7 134.6 569.3 133.8 568 132.8C566.8 131.8 565.8 130.5 565.1 129C564.4 127.5 564.1 125.7 564.1 123.7C564.1 121.5 564.6 119.7 565.3 118.2C566 116.7 567.3 115.5 568.7 114.7C570.1 113.8 571.8 113.1 573.7 112.6C575.6 112.1 577.7 111.8 579.9 111.5C583.5 111 586 110.4 587.6 109.7C589.2 109 590 107.9 590 106.4C590 104.9 589.5 103.8 588.5 102.9C587.5 102 586.1 101.6 584 101.6C581.7 101.6 580 102.1 578.9 103.1C577.8 104.1 577.1 105.3 577 106.9H566.1C566.2 105.2 566.6 103.5 567.3 101.9C568.1 100.3 569.1 98.8 570.6 97.6C572.1 96.4 573.9 95.4 576.1 94.6C578.3 93.9 580.9 93.5 583.9 93.5C586.5 93.5 588.7 93.7 590.5 94C592.3 94.4 594 95 595.4 95.8C597.5 97 599.1 98.6 600.1 100.7C601.1 102.8 601.6 105.1 601.6 107.8V128.4C601.6 131.5 602.1 133.4 603.1 134V134.7H591.5V134.8Z" fill="black"/>
<path d="M606.7 94.7H612.7V81.9H624.4V94.7H632.3V102.3H624.4V122.2C624.4 123.7 624.8 124.7 625.5 125.3C626.3 125.8 627.3 126.1 628.8 126.1C629.2 126.1 629.6 126.1 630.2 126C630.7 126 631.2 125.9 631.6 125.9H632.2V134.7C631.5 134.8 630.6 134.9 629.4 135.1C628.3 135.3 626.9 135.3 625.3 135.3C623.5 135.3 621.8 135.1 620.2 134.8C618.7 134.5 617.4 133.9 616.2 133C615.1 132.2 614.2 131.1 613.6 129.7C613 128.4 612.7 126.6 612.7 124.6V102.1H606.7V94.7Z" fill="black"/>
<path d="M657.2 102C654.4 102 652.4 102.8 651 104.4C649.6 106 648.7 108.2 648.2 111H665.3C665.1 108.2 664.3 106 662.8 104.4C661.4 102.7 659.5 102 657.2 102ZM657.8 136C654.5 136 651.6 135.5 649 134.4C646.4 133.3 644.2 131.8 642.4 129.9C640.6 128 639.2 125.8 638.2 123.2C637.2 120.6 636.7 117.9 636.7 114.8C636.7 111.8 637.2 109 638.2 106.4C639.2 103.8 640.6 101.6 642.4 99.7C644.2 97.8 646.4 96.3 648.9 95.2C651.4 94.1 654.2 93.6 657.3 93.6C660.2 93.6 662.7 94.1 665 95C667.3 95.9 669.3 97.1 671.1 98.7C673.4 100.9 675 103.7 676.1 107C677.2 110.3 677.6 113.9 677.6 117.8H648.1C648.5 120.8 649.5 123.1 651.1 124.9C652.7 126.6 654.9 127.5 657.8 127.5C659.6 127.5 661.2 127.2 662.4 126.5C663.5 125.8 664.5 124.8 665.2 123.6H676.7C676.2 125.4 675.4 127 674.3 128.6C673.2 130.1 671.9 131.5 670.3 132.6C668.7 133.7 666.9 134.6 664.7 135.2C662.7 135.7 660.3 136 657.8 136Z" fill="black"/>
<path d="M694.8 100.8H695C696.2 98.4 697.9 96.6 700 95.4C702.1 94.2 704.5 93.6 707.3 93.6C711.7 93.6 715.2 95 717.6 97.6C720 100.3 721.3 103.9 721.3 108.4V134.8H709.5V110.7C709.5 108.5 709 106.7 707.8 105.4C706.7 104 705 103.4 702.8 103.4C700.5 103.4 698.6 104.2 697.2 105.9C695.8 107.6 695.1 109.6 695.1 112.2V134.8H683.4V94.7H694.9L694.8 100.8Z" fill="black"/>
</g>
<defs>
<clipPath id="clip0_1255_3">
<rect width="721" height="206" fill="white"/>
</clipPath>
</defs>
</svg>
