<svg aria-hidden="true" xmlns="http://www.w3.org/2000/svg">
  <use xlink:href="#tryg-logo" xmlns:xlink="http://www.w3.org/1999/xlink">
    <symbol id="tryg-logo" viewBox="0 0 142 60">
      <title>Tryg Logo</title>
      <path d="M8.99 60C4.025 60 0 55.97 0 51.001V9C0 4.029 4.021 0 8.99 0h124.02c4.965 0 8.99 4.03 8.99 8.999V51c0 4.97-4.021 8.999-8.99 8.999H8.99z" id="Combined-Shape" fill="#ce0303"/>
      <path d="M127.184 39.326c-.174.212-.434.468-.573.622a12.51 12.51 0 0 1-3.64 2.744c-.352.177-.711.337-1.075.48a14.02 14.02 0 0 0 3.94-3.27c-.537-.149-1.117-.513-1.705-.988-.961-.776-1.637-1.609-1.516-2.397.16-.166.313-.337.459-.517 2.791-3.444 2.42-8.43-.732-11.437.781.107 1.601-.568 2.371-1.52.74-.912 1.226-1.818 1.029-2.546 5.358 4.858 6.051 13.141 1.442 18.829zm-10.68-16.166c1.715 0 3.394.596 4.728 1.676 3.221 2.608 3.719 7.351 1.108 10.569a7.491 7.491 0 0 1-5.844 2.786 7.53 7.53 0 0 1-4.73-1.678 7.454 7.454 0 0 1-2.745-5.055 7.455 7.455 0 0 1 1.637-5.513 7.491 7.491 0 0 1 5.846-2.785zm-10.691-1.137c.187-.229.38-.449.578-.665.709-.124 1.572.344 2.437 1.048.686.552 1.221 1.134 1.432 1.709a8.26 8.26 0 0 1 4.002-1.72 9.384 9.384 0 0 0-4.008 2.58 7.624 7.624 0 0 0-.289.326l-.102.131a8.377 8.377 0 0 0-1.781 6.126 8.382 8.382 0 0 0 2.645 5.294c-.827-.227-1.709.471-2.532 1.488-.691.851-1.156 1.701-1.052 2.402-5.254-4.871-5.905-13.073-1.33-18.719zm-.799-.648c-5.131 6.33-4.153 15.651 2.179 20.779a14.817 14.817 0 0 0 9.297 3.296c4.485 0 8.674-1.995 11.492-5.475 5.131-6.33 4.155-15.652-2.177-20.78a14.818 14.818 0 0 0-9.299-3.295 14.724 14.724 0 0 0-11.492 5.475zM73.117 32.049h-.119c-2.346 0-3.439-1.124-3.439-3.547 0-2.386 1.121-3.547 3.439-3.547h.141c2.269.027 3.377 1.192 3.377 3.547 0 2.395-1.077 3.518-3.399 3.547zm.031-10.092c-4.847 0-9.242 1.586-9.242 7.036 0 2.581 1.487 4.34 3.559 5.313l.129.059-.555.394c-1.502 1.015-3.117 2.455-3.117 4.473 0 1.535 1.113 2.477 2.367 2.933 1.668.659 3.758.586 5.258.625.771.034 3.387-.262 4.603.185.409.181.77.59.77 1.074 0 .934-1.459 3.485-1.459 3.485h5.512l.261-.575.862-1.92c.281-.683.386-1.154.386-1.813v-.051c-.185-4.74-5.759-4.705-6.82-4.776l-3.662-.1s-1.982.1-1.982-1.179c0-.834.836-1.527 1.744-2.099 0 0 1.261.108 2.275.108 4.637 0 8.092-1.967 8.092-6.136 0-1.642-.875-3.156-1.201-3.734l2.615.132v-3.152h-6.385s-1.703-.282-4.01-.282zM52.73 33.668c-.132-.412-3.527-10.457-3.853-11.429h-6.586c.76 1.67 7.486 16.425 7.535 16.548L46.1 46.349l6.087.003 11.014-24.113h-6.619L52.73 33.668zM28.994 23.047v15.409h5.772V26.618s1.75-.393 3.478-.393c.985 0 2.031.122 2.031.122v-4.283s-1.412-.062-1.974-.062c-5.662 0-9.307 1.045-9.307 1.045zM8.828 20.948h6.535v17.511h5.948V20.948h6.595v-4.062H8.828v4.062zM92 50h2V11h-2v39z" id="Shape" fill="#FFF"/>
    </symbol>
  </use>
</svg>